<?xml version="1.0" standalone="no"?>
<!DOCTYPE svg PUBLIC "-//W3C//DTD SVG 20010904//EN"
 "http://www.w3.org/TR/2001/REC-SVG-20010904/DTD/svg10.dtd">
<svg version="1.0" xmlns="http://www.w3.org/2000/svg"
 width="1080.000000pt" height="1080.000000pt" viewBox="0 0 1080.000000 1080.000000"
 preserveAspectRatio="xMidYMid meet">
<metadata>
Created by potrace 1.14, written by Peter Selinger 2001-2017
</metadata>
<g transform="translate(0.000000,1080.000000) scale(0.100000,-0.100000)"
fill="#000000" stroke="none">
<path d="M5207 9224 c-2 -3 -42 -7 -197 -19 -19 -2 -35 -4 -35 -5 0 -1 -18 -3
-40 -5 -22 -2 -60 -6 -85 -10 -25 -3 -56 -8 -70 -9 -14 -2 -38 -6 -55 -10 -16
-3 -43 -8 -60 -11 -16 -2 -54 -11 -83 -19 -29 -8 -55 -15 -57 -15 -3 -1 -6 -1
-7 -2 -2 0 -14 -2 -28 -4 -50 -9 -101 -23 -255 -73 -60 -19 -116 -35 -122 -35
-7 0 -13 -5 -13 -10 0 -6 -3 -7 -7 -4 -3 4 -11 3 -17 -1 -6 -5 -33 -16 -61
-26 -53 -18 -55 -19 -150 -61 -75 -33 -268 -128 -275 -135 -3 -3 -16 -11 -30
-18 -14 -6 -32 -16 -40 -21 -8 -5 -58 -35 -110 -67 -52 -31 -116 -72 -143 -90
-26 -19 -49 -34 -52 -34 -3 0 -15 -9 -27 -20 -13 -10 -26 -19 -30 -20 -5 0
-16 -8 -27 -17 -10 -10 -62 -52 -115 -93 -53 -41 -96 -78 -96 -82 0 -4 -4 -8
-9 -8 -5 0 -28 -17 -52 -37 -56 -50 -297 -294 -329 -333 -14 -17 -40 -46 -57
-65 -18 -19 -30 -35 -28 -35 5 0 -32 -44 -63 -76 -7 -8 -10 -14 -6 -14 4 0 -3
-8 -14 -19 -12 -10 -22 -23 -22 -29 0 -6 -6 -15 -13 -19 -6 -4 -16 -15 -22
-24 -27 -43 -111 -166 -122 -177 -6 -6 -15 -21 -18 -32 -3 -11 -11 -20 -16
-20 -5 0 -9 -7 -9 -15 0 -8 -5 -15 -11 -15 -5 0 -8 -4 -4 -9 3 -5 1 -12 -4
-16 -6 -3 -20 -26 -32 -50 -12 -25 -26 -45 -30 -45 -4 0 -10 -13 -14 -29 -3
-16 -13 -35 -21 -41 -7 -7 -11 -16 -8 -21 3 -5 0 -9 -6 -9 -6 0 -9 -4 -5 -9 3
-5 0 -15 -7 -23 -18 -18 -114 -217 -110 -225 1 -2 -6 -18 -16 -35 -18 -31 -34
-80 -31 -94 0 -4 -4 -10 -9 -13 -7 -5 -54 -130 -57 -151 0 -3 -4 -11 -9 -18
-4 -7 -5 -16 -2 -19 3 -3 2 -11 -3 -17 -7 -9 -48 -133 -56 -171 -1 -5 -7 -28
-13 -50 -6 -22 -13 -52 -16 -68 -3 -15 -8 -37 -12 -50 -4 -12 -8 -31 -9 -42
-1 -11 -5 -31 -8 -45 -3 -14 -9 -43 -12 -65 -3 -22 -7 -49 -9 -60 -16 -87 -30
-208 -39 -330 -1 -16 -6 -36 -10 -42 -5 -7 -4 -13 1 -13 5 0 9 -7 9 -15 0 -8
-4 -12 -8 -9 -10 6 -5 -38 6 -55 5 -10 4 -12 -4 -7 -9 6 -11 -28 -10 -138 0
-103 4 -146 12 -146 8 0 9 -3 1 -8 -8 -5 -13 -67 -5 -67 1 0 4 -29 6 -65 2
-36 7 -85 10 -110 3 -25 8 -63 10 -85 2 -22 4 -40 5 -40 1 0 4 -18 6 -40 5
-49 12 -90 14 -90 1 0 3 -13 5 -30 2 -16 11 -61 19 -100 9 -38 18 -79 19 -90
2 -11 7 -29 10 -40 3 -11 8 -31 11 -45 3 -14 9 -39 15 -57 5 -17 7 -34 3 -37
-3 -3 0 -6 6 -6 7 0 12 -13 12 -30 0 -16 4 -30 8 -30 4 0 9 -12 10 -26 1 -15
6 -32 10 -38 5 -6 14 -31 21 -56 6 -25 16 -54 21 -65 24 -52 58 -154 53 -159
-4 -3 -1 -6 5 -6 7 0 12 -5 12 -10 0 -6 14 -41 32 -78 17 -37 32 -69 32 -73 2
-14 92 -184 99 -187 4 -2 5 -8 1 -13 -3 -5 0 -9 5 -9 6 0 11 -4 11 -9 0 -13
82 -155 92 -159 4 -2 8 -12 8 -23 0 -10 3 -19 8 -19 4 0 20 -21 37 -48 16 -26
32 -49 35 -52 4 -3 15 -20 25 -37 11 -18 23 -33 27 -33 4 0 8 -7 8 -15 0 -8 5
-15 10 -15 6 0 10 -7 10 -15 0 -8 5 -15 10 -15 6 0 10 -7 10 -16 0 -8 4 -12
10 -9 5 3 10 0 10 -9 0 -8 3 -16 8 -18 4 -1 20 -21 37 -43 45 -61 58 -76 88
-107 15 -15 25 -28 22 -28 -22 0 345 -360 453 -444 15 -11 38 -31 52 -43 14
-12 72 -56 130 -97 58 -42 110 -79 115 -83 21 -16 121 -80 135 -86 8 -4 29
-16 45 -27 17 -11 37 -23 45 -27 8 -5 42 -24 75 -43 33 -19 66 -35 73 -36 8
-2 21 -9 30 -16 28 -24 219 -113 235 -110 4 1 7 -2 7 -8 0 -5 9 -10 20 -10 11
0 20 -5 20 -12 0 -6 3 -9 6 -5 4 3 23 -1 43 -9 20 -9 41 -17 46 -18 6 -2 24
-9 40 -15 17 -7 53 -20 80 -28 28 -8 56 -20 63 -25 6 -6 12 -8 12 -5 0 3 25
-3 55 -13 30 -10 55 -17 55 -15 0 2 23 -5 52 -16 28 -10 54 -17 56 -14 2 2 16
-1 31 -7 14 -5 35 -12 46 -14 11 -2 31 -6 45 -9 14 -3 40 -8 58 -10 18 -3 42
-9 51 -15 10 -5 20 -7 23 -5 3 3 29 0 59 -5 30 -6 74 -13 99 -16 25 -3 56 -7
70 -9 239 -34 648 -37 875 -8 22 2 55 5 73 6 17 1 32 4 32 7 0 3 15 6 33 7 33
1 84 8 128 17 14 3 41 8 60 10 19 3 34 5 34 6 0 2 22 7 60 15 17 3 39 9 50 12
11 4 27 7 35 8 8 1 31 6 50 10 43 11 42 10 60 18 8 3 69 22 135 42 66 20 127
39 135 42 8 3 18 5 23 5 4 -1 7 3 7 9 0 5 4 8 8 5 5 -3 20 1 34 8 33 17 91 37
99 33 4 -1 17 7 29 18 12 11 23 19 24 17 0 -2 15 2 31 9 17 7 32 13 35 14 10
2 215 107 248 126 17 10 32 15 32 11 0 -4 4 -2 8 4 9 13 109 74 122 74 6 0 10
5 10 10 0 6 6 10 13 10 6 0 30 14 51 30 21 16 43 27 47 24 5 -3 9 -1 9 4 0 8
68 59 129 97 9 6 20 16 24 23 4 6 13 12 19 12 6 0 19 10 29 22 11 11 19 17 19
13 0 -4 8 2 19 13 10 12 22 22 25 22 4 0 13 6 20 12 7 7 32 29 55 48 137 114
441 414 441 436 0 2 8 12 18 22 19 20 63 74 111 137 17 22 39 50 50 61 11 12
18 24 16 26 -3 2 8 18 24 35 16 18 26 34 23 37 -3 3 0 6 6 6 7 0 12 7 12 15 0
8 4 15 8 15 5 0 14 10 21 23 6 12 19 34 29 48 37 56 124 204 125 214 1 5 5 12
9 15 3 3 35 64 71 135 57 113 80 163 117 250 16 39 55 140 55 145 0 3 8 25 17
50 18 50 47 139 51 155 1 6 6 16 10 23 5 6 6 12 3 12 -2 0 4 30 15 68 20 67
38 140 44 177 2 11 8 37 13 57 5 20 7 39 5 42 -3 2 -1 11 3 18 5 7 9 22 10 33
6 70 9 85 14 85 4 0 7 17 8 38 1 41 9 107 12 107 1 0 3 29 5 65 2 36 5 65 6
65 1 0 2 25 4 56 1 30 5 61 9 67 4 7 2 12 -4 12 -6 0 -8 5 -3 13 10 16 11 293
2 330 -4 15 -4 27 0 27 3 0 7 9 7 20 0 11 -3 20 -6 20 -4 0 -7 21 -7 48 -1 26
-5 76 -8 112 -4 36 -8 80 -9 97 0 18 -3 33 -6 33 -3 0 -6 15 -7 33 -2 32 -10
92 -13 92 -1 0 -3 14 -6 30 -2 17 -8 50 -13 75 -5 25 -12 59 -15 75 -4 17 -8
39 -11 50 -2 11 -5 23 -5 27 -1 4 -10 37 -20 73 -10 36 -16 65 -12 65 4 0 2 4
-5 8 -6 4 -14 21 -17 37 -2 17 -5 30 -6 30 -1 0 -3 11 -6 24 -2 14 -9 30 -15
37 -6 7 -8 17 -5 23 4 5 1 15 -6 23 -7 7 -14 22 -16 33 -1 11 -7 29 -12 40 -5
11 -23 58 -40 104 -43 115 -92 225 -105 233 -5 4 -6 8 -1 8 5 0 3 6 -3 13 -6
8 -8 17 -4 20 3 4 2 7 -4 7 -5 0 -25 30 -42 68 -18 37 -38 76 -44 87 -7 11
-30 52 -51 90 -47 84 -127 207 -141 217 -5 4 -7 8 -3 8 7 0 -11 25 -39 55 -7
8 -13 18 -13 23 0 4 -11 19 -25 32 -14 13 -25 29 -25 36 0 7 -3 14 -8 16 -4 2
-30 32 -57 68 -110 143 -307 351 -459 485 -72 63 -254 207 -296 234 -14 8 -27
18 -30 21 -13 14 -83 61 -155 105 -44 27 -82 52 -85 55 -3 3 -35 21 -72 40
-38 19 -68 38 -68 41 0 6 -36 19 -44 16 -2 -1 -13 7 -25 17 -12 11 -21 15 -21
10 0 -5 -4 -4 -8 2 -9 13 -71 44 -89 44 -7 0 -13 5 -13 10 0 6 -4 10 -9 10 -5
0 -30 10 -57 22 -27 12 -52 21 -56 20 -5 -1 -8 2 -8 8 0 5 -7 10 -15 10 -9 0
-34 9 -57 20 -22 11 -45 17 -49 14 -5 -3 -9 0 -9 6 0 6 -4 8 -10 5 -5 -3 -10
-1 -10 6 0 7 -3 10 -6 6 -4 -3 -18 0 -33 7 -14 8 -37 16 -51 17 -14 2 -31 10
-38 17 -8 7 -18 10 -23 6 -6 -3 -16 0 -24 6 -8 7 -15 9 -15 6 0 -4 -10 -1 -22
6 -13 6 -30 12 -38 13 -8 1 -46 11 -85 23 -63 19 -88 25 -150 37 -20 4 -31 7
-75 18 -14 4 -38 9 -55 11 -16 2 -30 5 -30 6 0 1 -9 3 -20 5 -11 1 -38 6 -60
9 -22 4 -56 9 -75 11 -19 2 -35 4 -35 5 0 1 -18 3 -40 5 -22 1 -40 3 -40 5 0
2 -22 4 -148 13 -32 3 -61 8 -64 11 -3 3 -13 0 -21 -7 -11 -8 -13 -8 -9 0 5 8
-43 11 -188 11 -107 -1 -196 -2 -198 -4z m523 -98 c25 -2 45 -5 45 -6 0 -1 23
-4 50 -6 63 -5 77 -8 92 -17 6 -4 14 -3 18 3 4 6 12 7 18 3 10 -6 35 -11 82
-16 11 -2 26 -6 33 -11 7 -4 16 -6 18 -3 3 2 22 1 42 -4 20 -5 52 -12 70 -15
19 -3 51 -12 72 -19 21 -7 40 -12 43 -9 2 2 23 -3 47 -11 24 -8 52 -17 64 -20
64 -14 112 -30 118 -39 4 -6 8 -8 8 -4 0 7 99 -25 170 -55 14 -6 27 -11 30
-12 18 -6 49 -18 70 -28 14 -6 28 -10 33 -9 4 1 7 -3 7 -10 0 -6 3 -8 6 -5 4
3 16 1 28 -5 11 -7 23 -12 26 -13 9 0 305 -149 310 -155 3 -4 25 -17 50 -31
25 -13 47 -27 48 -31 2 -5 8 -8 13 -8 6 0 43 -22 84 -50 41 -27 78 -50 83 -50
6 0 13 -7 16 -16 4 -9 9 -14 12 -11 4 3 11 2 18 -4 6 -5 27 -23 46 -39 19 -16
40 -30 47 -30 6 0 13 -4 15 -9 2 -5 28 -29 59 -53 170 -132 461 -419 589 -583
52 -66 68 -87 118 -155 26 -36 50 -66 54 -68 5 -2 8 -8 8 -12 0 -5 26 -49 57
-97 64 -97 84 -131 110 -183 9 -19 20 -37 23 -40 7 -5 135 -260 135 -270 1 -3
9 -23 19 -45 20 -45 35 -81 46 -110 4 -11 12 -31 18 -45 13 -30 52 -141 55
-155 2 -5 5 -14 9 -20 6 -10 19 -67 20 -82 0 -5 4 -14 10 -20 6 -7 8 -13 4
-13 -3 0 -1 -12 5 -27 6 -16 12 -35 14 -43 5 -25 41 -174 51 -212 3 -13 7 -39
9 -58 2 -19 4 -36 4 -37 11 -30 27 -144 36 -253 2 -25 4 -45 5 -45 13 0 18
-528 7 -645 -4 -36 -9 -87 -11 -115 -2 -27 -6 -68 -10 -90 -3 -22 -8 -56 -10
-75 -3 -19 -8 -53 -12 -75 -4 -22 -8 -49 -10 -60 -1 -11 -3 -20 -4 -20 -2 0
-6 -18 -14 -62 -3 -18 -10 -43 -16 -57 -5 -15 -8 -26 -6 -26 3 0 -9 -48 -25
-107 -36 -129 -35 -124 -41 -143 -18 -50 -49 -144 -49 -147 0 -2 -15 -39 -34
-83 -19 -44 -32 -80 -29 -80 2 0 -2 -10 -11 -23 -8 -13 -12 -27 -8 -30 3 -4 2
-7 -4 -7 -10 0 -19 -20 -28 -59 -2 -8 -10 -18 -17 -22 -7 -5 -10 -9 -5 -9 4 0
1 -13 -8 -30 -8 -16 -15 -33 -14 -36 0 -4 -3 -10 -8 -13 -5 -3 -23 -35 -41
-71 -46 -92 -94 -174 -104 -178 -4 -2 -8 -10 -8 -18 0 -8 -5 -20 -10 -27 -24
-28 -121 -173 -126 -189 -4 -10 -10 -18 -15 -18 -5 0 -9 -7 -9 -15 0 -8 -3
-15 -7 -15 -5 0 -23 -23 -42 -50 -19 -28 -38 -50 -43 -50 -4 0 -8 -6 -8 -14 0
-8 -10 -22 -22 -30 -12 -9 -19 -16 -14 -16 5 0 -2 -10 -15 -23 -13 -13 -44
-48 -69 -78 -99 -120 -356 -365 -504 -482 -34 -26 -71 -56 -83 -66 -13 -11
-23 -17 -23 -14 0 2 -13 -6 -29 -19 -15 -12 -38 -30 -51 -38 -12 -8 -28 -21
-36 -28 -7 -6 -16 -12 -21 -12 -4 0 -26 -14 -47 -30 -22 -17 -45 -30 -51 -30
-7 0 -20 -9 -30 -20 -10 -11 -22 -20 -26 -20 -5 0 -37 -17 -71 -38 -35 -21
-99 -56 -143 -78 -44 -21 -83 -43 -87 -49 -4 -5 -8 -7 -8 -3 0 3 -32 -9 -70
-28 -39 -19 -73 -34 -76 -34 -3 0 -20 -7 -37 -15 -52 -23 -151 -59 -159 -57
-5 1 -8 -2 -8 -8 0 -6 -3 -9 -7 -8 -5 1 -55 -14 -113 -32 -58 -19 -109 -35
-115 -36 -5 -1 -35 -9 -65 -18 -30 -8 -67 -17 -83 -20 -15 -3 -35 -7 -45 -10
-9 -3 -28 -8 -42 -10 -14 -3 -45 -10 -70 -16 -25 -6 -65 -14 -90 -17 -60 -7
-85 -11 -85 -13 0 -1 -16 -4 -35 -5 -19 -2 -62 -6 -95 -10 -33 -3 -89 -9 -125
-12 -75 -7 -513 -9 -580 -2 -25 3 -51 9 -59 13 -10 7 -12 5 -6 -4 6 -9 4 -11
-5 -5 -11 7 -78 15 -147 18 -13 1 -23 3 -23 7 0 3 -12 5 -27 6 -30 1 -108 11
-108 14 0 1 -13 4 -30 6 -16 2 -52 9 -80 16 -27 6 -54 11 -59 10 -4 -2 -14 3
-22 9 -8 6 -14 9 -14 6 0 -3 -33 3 -72 15 -40 11 -81 21 -90 23 -23 5 -246 80
-283 96 -16 7 -32 13 -35 14 -28 9 -71 27 -135 55 -67 29 -339 163 -345 170
-3 3 -25 16 -50 29 -25 14 -47 28 -50 31 -3 4 -16 13 -30 20 -40 21 -133 82
-157 103 -13 11 -23 17 -23 13 0 -4 -6 -2 -12 4 -7 5 -29 24 -48 40 -19 16
-41 30 -47 30 -7 0 -13 4 -13 8 0 5 -19 22 -43 39 -23 17 -57 44 -74 60 -18
15 -52 44 -75 63 -59 49 -325 316 -373 374 -22 27 -50 59 -63 72 -12 13 -22
26 -22 29 0 4 -6 12 -12 19 -18 18 -51 60 -109 141 -27 39 -56 78 -64 88 -8 9
-15 20 -15 22 0 6 -63 102 -80 122 -5 7 -10 19 -10 27 0 8 -4 16 -8 18 -13 5
-71 108 -143 253 -35 72 -64 132 -64 135 -1 3 -11 27 -23 54 -12 27 -22 51
-22 53 0 3 -7 21 -16 41 -29 67 -39 93 -49 132 -1 3 -7 18 -13 33 -7 16 -12
34 -12 42 0 8 -4 16 -9 19 -5 3 -12 23 -17 43 -4 21 -8 41 -9 46 -4 12 -5 17
-6 25 -1 4 -6 18 -11 32 -6 14 -12 34 -14 45 -2 11 -8 38 -14 60 -6 22 -13 50
-15 62 -1 11 -6 30 -9 41 -9 28 -16 61 -21 97 -3 17 -8 48 -11 70 -4 22 -8 52
-8 68 -1 15 -3 27 -6 27 -4 0 -6 10 -7 23 0 12 -4 51 -7 87 -4 36 -9 97 -13
135 -14 150 -7 531 12 705 3 25 7 63 9 85 3 22 6 40 7 40 1 0 3 14 5 30 3 37
12 91 21 125 3 14 7 32 8 40 6 37 16 84 20 90 2 4 7 22 10 41 3 19 13 59 21
89 9 30 17 62 19 70 2 8 8 27 14 43 6 15 8 27 5 27 -4 0 -1 6 5 14 6 8 11 18
9 22 -1 5 3 19 10 32 7 12 10 22 7 22 -3 0 1 13 9 29 9 16 12 31 9 35 -4 3 0
6 7 6 7 0 11 3 7 6 -3 3 10 41 28 85 19 44 34 82 34 84 -1 13 168 355 207 420
13 22 30 52 36 68 7 15 15 27 19 27 4 0 12 14 19 30 7 17 16 30 21 30 5 0 9 7
9 15 0 8 5 15 10 15 6 0 10 6 10 13 0 7 13 28 30 47 16 19 29 39 30 44 0 4 10
20 23 35 12 15 31 40 42 56 11 15 28 36 38 47 9 10 17 22 17 27 0 6 10 17 22
25 12 9 19 16 14 16 -5 0 1 8 12 19 12 10 22 20 22 23 0 17 312 335 415 423
38 33 75 65 81 70 6 6 25 21 43 35 18 14 38 30 45 35 47 40 97 75 105 75 6 0
11 3 11 8 0 4 18 18 40 32 22 14 40 28 40 32 0 5 6 8 14 8 7 0 19 7 26 15 7 9
15 13 17 11 3 -2 13 3 22 12 16 16 109 75 121 77 3 1 21 11 40 23 19 12 78 43
130 69 52 27 98 52 101 56 3 5 9 8 13 7 3 0 28 9 54 22 26 12 52 22 58 23 6 0
18 5 25 11 11 8 181 76 199 80 3 0 14 4 25 8 18 7 36 13 88 30 9 3 21 6 25 7
4 0 14 5 23 9 8 5 69 23 135 40 120 32 140 37 182 44 12 3 30 7 40 10 9 3 33
8 52 10 19 3 46 7 60 10 13 3 42 8 65 11 22 3 58 8 80 11 22 4 60 8 85 10 148
12 184 15 187 18 4 4 498 -3 553 -8z"/>
<path d="M6726 7354 c-37 -18 -74 -34 -82 -34 -8 0 -14 -4 -14 -10 0 -5 -3 -9
-7 -8 -5 0 -35 -11 -68 -26 -33 -15 -80 -37 -105 -48 -25 -11 -78 -36 -118
-54 -41 -19 -78 -34 -83 -34 -5 0 -9 -5 -9 -11 0 -6 -6 -9 -14 -6 -8 3 -20 -1
-26 -8 -7 -8 -15 -14 -18 -13 -4 1 -30 -10 -58 -23 l-51 -25 28 -59 c15 -33
38 -82 50 -110 12 -27 38 -84 57 -125 40 -88 80 -175 112 -245 12 -27 35 -77
50 -110 58 -125 71 -156 66 -163 -3 -5 -20 -7 -38 -5 -41 5 -91 4 -96 -2 -3
-2 -13 0 -23 6 -11 5 -19 6 -19 2 0 -10 -122 -9 -138 1 -7 4 -12 3 -12 -1 0
-10 -63 -8 -79 2 -6 3 -11 3 -11 -2 0 -11 -163 -10 -171 1 -4 5 -13 5 -20 1
-16 -11 -117 -13 -145 -3 -12 3 -25 4 -28 1 -5 -6 -120 -8 -141 -3 -5 1 -13 1
-17 0 -12 -2 -131 -3 -143 0 -5 1 -13 1 -17 0 -12 -2 -131 -3 -143 0 -5 1 -12
2 -15 0 -17 -6 -158 -5 -172 2 -10 5 -18 5 -18 1 0 -10 -63 -8 -79 2 -6 3 -11
3 -11 -2 0 -4 -30 -7 -67 -5 -88 3 -126 2 -131 -3 -3 -2 -13 0 -23 6 -11 5
-19 6 -19 2 0 -10 -111 -10 -127 0 -7 5 -13 5 -13 0 0 -10 -141 -10 -158 1 -7
4 -12 3 -12 -1 0 -10 -63 -8 -79 2 -6 3 -11 3 -11 -2 0 -4 -30 -7 -67 -5 -88
3 -126 2 -131 -3 -3 -2 -13 0 -23 6 -11 5 -19 6 -19 2 0 -4 -38 -8 -85 -8 -47
0 -85 4 -85 8 0 5 -6 5 -12 0 -18 -10 -89 -11 -110 -1 -10 5 -18 5 -18 1 0
-10 -63 -8 -79 2 -6 3 -11 3 -11 -2 0 -4 -30 -7 -67 -5 -88 3 -126 2 -131 -3
-3 -2 -13 0 -23 6 -11 5 -19 6 -19 2 0 -10 -111 -10 -127 0 -7 5 -13 5 -13 0
0 -10 -141 -10 -158 1 -7 4 -12 3 -12 -1 0 -10 -63 -8 -79 2 -6 3 -11 3 -11
-2 0 -4 -30 -7 -67 -5 -88 3 -126 2 -131 -3 -3 -2 -13 0 -23 6 -11 5 -19 6
-19 2 0 -5 -34 -8 -75 -7 l-75 2 0 -407 0 -406 131 0 c72 0 133 -4 137 -9 9
-16 8 -498 -2 -503 -5 -4 -128 -6 -273 -6 l-263 0 2 -406 3 -406 120 -1 c66
-1 126 -2 133 -3 9 -1 12 -74 12 -331 l0 -330 2005 0 c1597 0 2005 3 2006 13
4 67 2 772 -2 786 -6 15 -22 17 -138 16 l-131 -1 0 257 0 257 268 0 c147 1
269 1 272 1 3 1 5 120 5 266 0 145 3 261 6 257 4 -4 52 -106 107 -227 55 -121
112 -247 127 -280 15 -33 43 -94 62 -135 38 -80 67 -145 103 -225 12 -27 47
-101 76 -164 30 -62 54 -118 54 -125 0 -7 4 -16 9 -21 5 -6 68 -140 141 -300
73 -159 143 -314 157 -342 13 -29 26 -53 28 -53 3 0 39 16 81 35 41 19 77 35
78 35 2 0 56 25 120 55 64 30 118 55 121 55 2 0 51 22 107 49 154 73 196 91
207 91 24 0 18 27 -37 147 -66 144 -92 200 -164 358 -28 61 -66 143 -84 183
-19 41 -34 75 -34 77 0 1 -24 54 -54 116 -29 63 -72 157 -96 209 -23 52 -57
127 -75 165 -18 39 -45 97 -60 130 -41 91 -343 752 -375 820 -15 33 -62 137
-105 230 -42 94 -97 212 -121 263 -24 51 -44 95 -44 97 0 4 -32 73 -114 248
-25 55 -46 100 -46 102 0 2 -20 45 -44 97 -24 51 -70 152 -102 223 -69 154
-87 188 -99 191 -6 2 -41 -13 -79 -32z m54 -249 c19 -46 38 -85 43 -85 4 0 7
-6 7 -13 0 -7 8 -31 19 -53 24 -50 59 -126 161 -349 45 -99 102 -222 126 -274
24 -51 44 -95 44 -96 0 -2 16 -39 36 -82 68 -147 96 -208 176 -383 44 -96 98
-213 119 -258 22 -46 39 -85 39 -87 0 -2 21 -47 46 -102 25 -54 65 -141 89
-193 24 -52 72 -158 108 -235 35 -77 73 -160 85 -185 49 -111 63 -140 102
-225 23 -49 89 -193 147 -320 57 -126 114 -250 126 -275 34 -74 36 -71 -68
-116 -33 -14 -67 -30 -75 -35 -15 -9 -92 -43 -99 -44 -2 0 -47 -21 -100 -46
l-95 -47 -17 37 c-9 20 -51 113 -94 206 -42 94 -93 204 -112 245 -19 41 -42
91 -51 110 -8 19 -39 86 -69 148 -29 63 -53 116 -53 118 0 3 -16 40 -36 82
-43 90 -73 159 -75 170 0 4 -4 12 -9 17 -4 6 -39 80 -78 165 -39 85 -84 184
-100 220 -16 36 -66 144 -110 240 -44 96 -99 215 -121 263 -23 49 -41 90 -41
92 0 3 -16 38 -115 250 -18 39 -42 93 -55 120 -12 28 -35 77 -50 110 -15 33
-62 134 -103 225 -41 91 -89 195 -106 233 -17 37 -31 72 -31 77 0 6 -4 10 -9
10 -5 0 -11 10 -14 23 -2 12 -25 66 -51 120 l-46 98 83 38 c45 21 111 52 147
69 132 61 225 102 235 102 6 0 26 -38 45 -85z m-329 -1025 c1 -13 1 -442 0
-477 l-1 -28 -1855 0 -1855 0 0 257 0 258 1855 0 c1209 0 1855 -4 1856 -10z
m185 -257 c15 -32 46 -100 70 -150 23 -51 42 -93 41 -94 -13 -6 -79 -4 -83 3
-3 5 -11 5 -17 0 -7 -4 -19 -8 -27 -8 -13 1 -15 25 -16 154 -1 83 0 152 3 152
2 0 15 -26 29 -57z m80 -402 c12 -1 14 -494 2 -506 -9 -10 -2522 -10 -2537 -1
-6 4 -11 4 -11 -1 0 -6 -775 -9 -1112 -4 l-47 1 1 253 c0 138 4 254 8 257 7 4
3659 5 3696 1z m-538 -920 l-3 -256 -1852 0 -1853 0 0 32 c0 18 0 114 0 213 0
99 0 200 0 224 l0 44 1855 0 1855 0 -2 -257z m272 -413 c3 -3 5 -118 4 -255
l0 -248 -1857 -2 -1857 -2 0 253 c0 139 2 255 4 257 7 7 3701 5 3706 -3z"/>
<path d="M6690 7039 c-61 -33 -139 -67 -144 -62 -3 4 -6 2 -6 -3 0 -5 -28 -20
-61 -34 -34 -14 -63 -31 -66 -38 -3 -7 8 -38 23 -70 16 -31 30 -58 30 -60 1
-1 14 4 30 13 44 23 196 91 236 105 l36 13 -13 37 c-26 73 -49 108 -65 99z"/>
<path d="M6810 6779 c-41 -24 -140 -66 -140 -61 0 4 -4 3 -8 -3 -4 -5 -35 -23
-69 -39 -35 -16 -63 -33 -63 -37 0 -4 12 -35 26 -68 20 -46 30 -58 43 -54 20
7 90 39 203 92 l88 40 -31 68 c-17 37 -31 68 -32 69 -1 1 -9 -2 -17 -7z"/>
<path d="M6940 6439 c-21 -12 -184 -86 -210 -94 -3 -1 -17 -7 -31 -14 -26 -13
-26 -13 -9 -49 10 -21 24 -51 32 -69 l14 -31 49 21 c28 12 53 25 56 30 3 5 10
8 15 8 14 -1 48 11 54 18 3 4 31 18 63 30 31 13 59 26 61 30 8 12 -53 131 -66
130 -7 0 -20 -4 -28 -10z"/>
<path d="M7085 6025 c-27 -13 -89 -42 -137 -64 -49 -22 -88 -43 -88 -46 0 -16
55 -125 63 -125 5 0 41 15 80 34 40 18 105 48 145 66 40 18 71 38 68 44 -56
133 -50 129 -131 91z"/>
<path d="M7300 5493 c-41 -20 -103 -48 -137 -64 -35 -15 -63 -32 -63 -38 0 -5
13 -36 28 -69 l28 -60 30 13 c25 11 147 67 241 112 l32 15 -15 37 c-9 20 -21
48 -27 64 -6 15 -18 27 -27 26 -8 0 -49 -16 -90 -36z"/>
<path d="M7570 4985 c-25 -13 -61 -29 -80 -36 -19 -7 -38 -16 -41 -21 -3 -5
-16 -10 -27 -11 -12 -1 -22 -5 -22 -10 0 -4 -4 -6 -8 -3 -4 2 -18 -4 -32 -14
l-24 -18 29 -63 c15 -35 29 -65 30 -67 1 -1 33 13 71 31 38 18 104 49 147 67
51 22 77 39 77 50 0 26 -49 120 -63 120 -6 -1 -32 -12 -57 -25z"/>
<path d="M7760 4592 c-19 -9 -83 -39 -141 -65 l-105 -48 30 -65 c16 -35 34
-64 38 -64 4 0 42 16 84 35 41 19 80 35 85 35 5 0 9 5 9 11 0 5 3 8 8 6 4 -3
30 7 59 22 l52 26 -27 62 c-29 68 -37 72 -92 45z"/>
<path d="M7920 4268 c-25 -12 -66 -31 -92 -44 -27 -13 -48 -20 -48 -16 0 4 -4
1 -9 -6 -4 -7 -14 -15 -22 -16 -12 -2 -67 -25 -78 -33 -5 -3 39 -115 50 -127
5 -5 22 -3 41 4 37 15 261 120 266 125 3 3 -56 135 -60 135 -2 -1 -23 -10 -48
-22z"/>
<path d="M7992 3985 c-52 -25 -100 -45 -108 -45 -8 0 -14 -4 -14 -8 0 -5 -18
-15 -40 -22 -22 -7 -40 -18 -40 -23 0 -17 53 -127 61 -127 8 0 290 128 297
134 1 2 -10 31 -26 64 -17 34 -27 63 -24 66 14 15 -21 2 -106 -39z"/>
<path d="M2927 6004 c-4 -4 -19 -7 -35 -6 l-27 1 1 -152 c0 -84 2 -159 3 -167
1 -13 16 -16 71 -16 l70 0 1 30 c3 140 0 286 -6 295 -4 7 -20 10 -35 7 -16 -2
-30 0 -32 6 -2 5 -7 6 -11 2z"/>
<path d="M3216 6003 c-3 -3 -19 -6 -36 -5 l-30 1 2 -167 3 -167 73 0 72 -1 0
167 c0 154 -1 167 -17 164 -10 -1 -28 1 -39 6 -12 4 -25 5 -28 2z"/>
<path d="M3577 6003 c-4 -3 -19 -6 -34 -7 l-28 -1 -2 -165 -2 -165 75 -1 74
-1 0 167 0 167 -27 -1 c-16 -1 -33 2 -39 6 -6 4 -14 5 -17 1z"/>
<path d="M3995 6000 c-11 -4 -26 -5 -32 -3 -10 4 -13 -33 -13 -164 l0 -170 73
0 74 0 0 163 c1 175 0 179 -52 170 -11 -2 -22 0 -25 4 -3 4 -14 4 -25 0z"/>
<path d="M4582 6001 c-8 -4 -24 -7 -36 -6 -12 2 -23 -2 -24 -9 -2 -22 -2 -73
0 -196 l3 -125 73 -1 72 -1 -2 166 -3 166 -30 0 c-16 -1 -32 3 -35 7 -3 4 -11
3 -18 -1z"/>
<path d="M5171 6004 c-1 -6 -14 -9 -32 -6 -17 3 -34 0 -38 -6 -5 -8 -7 -276
-2 -318 1 -8 109 -12 141 -5 5 1 5 299 1 323 0 3 -14 5 -31 4 -16 -1 -32 3
-34 8 -3 8 -5 8 -5 0z"/>
<path d="M5596 6002 c-4 -3 -19 -6 -34 -7 l-27 0 -1 -165 -2 -166 68 1 c38 0
71 3 75 7 5 5 9 243 6 315 -1 6 -9 10 -18 8 -10 -1 -28 1 -39 6 -12 4 -25 5
-28 1z"/>
<path d="M5980 6002 c0 -5 -14 -7 -32 -6 -17 1 -36 0 -43 -2 -15 -6 -16 -323
-1 -326 6 0 39 -2 73 -2 56 -1 63 1 64 19 5 104 1 301 -7 304 -42 17 -54 19
-54 13z"/>
<path d="M6240 6003 c0 -5 -14 -8 -30 -7 l-30 2 2 -166 3 -167 73 0 72 -1 -2
165 -3 166 -30 1 c-17 0 -36 4 -43 8 -7 4 -12 3 -12 -1z"/>
<path d="M3142 5319 c-6 -14 -8 -293 -3 -319 2 -8 130 -4 138 4 9 8 11 325 3
327 -3 1 -34 2 -68 4 -54 2 -65 -1 -70 -16z"/>
<path d="M3424 5170 l-1 -165 26 -5 c14 -4 47 -4 74 -2 l47 4 0 74 c1 41 1
112 1 159 0 47 0 89 -1 93 0 5 -33 8 -73 8 l-73 -1 0 -165z"/>
<path d="M3789 5330 c-6 -28 -2 -323 4 -327 16 -10 129 -6 136 5 5 8 7 248 2
312 -1 12 -16 15 -71 16 -38 0 -71 -3 -71 -6z"/>
<path d="M4223 5171 l2 -165 25 -6 c14 -3 46 -4 73 -2 l47 4 0 167 0 167 -74
-1 -75 0 2 -164z"/>
<path d="M4802 5331 c-9 -7 -10 -316 0 -326 9 -9 127 -10 135 -1 11 11 9 317
-2 324 -13 8 -122 10 -133 3z"/>
<path d="M5373 5327 c-5 -9 -4 -319 1 -325 2 -2 23 -3 47 -2 24 0 56 1 70 0
l27 0 -1 165 c0 109 -4 165 -11 166 -45 6 -129 3 -133 -4z"/>
<path d="M5809 5330 c-5 -22 -3 -314 2 -322 9 -14 138 -16 142 -3 2 9 1 273
-2 315 -1 13 -15 16 -71 16 -38 0 -71 -3 -71 -6z"/>
<path d="M6168 5316 c-6 -35 -2 -305 4 -312 5 -5 92 -8 133 -5 14 1 14 331 0
332 -5 1 -38 2 -72 3 -55 2 -62 0 -65 -18z"/>
<path d="M6462 5331 c-5 -3 -9 -79 -9 -168 l0 -163 36 -1 c20 0 51 -1 69 -2
19 -1 36 2 39 7 9 13 7 315 -1 323 -9 9 -122 12 -134 4z"/>
<path d="M2590 4502 l0 -168 75 0 75 1 0 167 0 168 -75 0 -75 0 0 -168z"/>
<path d="M2879 4653 c-1 -20 0 -305 0 -314 1 -3 34 -5 74 -5 l72 1 1 168 0
167 -73 0 c-63 0 -73 -2 -74 -17z"/>
<path d="M3239 4655 c0 -8 0 -53 0 -100 0 -47 0 -116 0 -153 l1 -69 68 0 c37
0 70 5 74 11 4 6 8 82 8 169 l0 157 -75 0 c-60 0 -75 -3 -76 -15z"/>
<path d="M3679 4663 c-3 -21 -5 -309 -2 -319 3 -7 32 -11 76 -10 l72 1 1 155
c0 85 -2 161 -4 168 -5 13 -141 18 -143 5z"/>
<path d="M4250 4501 l0 -169 73 2 72 2 2 167 1 167 -74 0 -74 0 0 -169z"/>
<path d="M4824 4503 l1 -168 68 -1 c37 -1 70 2 73 7 4 8 7 148 5 287 l-1 42
-73 0 -73 0 0 -167z"/>
<path d="M5260 4502 l0 -168 73 0 72 1 3 168 2 167 -75 0 -75 0 0 -168z"/>
<path d="M5620 4501 l2 -169 74 1 74 1 0 168 0 168 -75 0 -76 0 1 -169z"/>
<path d="M5910 4502 l0 -169 68 2 c37 1 70 3 73 4 3 0 6 74 5 164 l-1 162 -72
3 -73 3 0 -169z"/>
<path d="M2869 4000 c-1 -3 -2 -78 -3 -167 l-2 -163 73 0 73 0 1 33 c1 51 1
260 0 282 -1 19 -8 21 -71 21 -38 0 -71 -3 -71 -6z"/>
<path d="M3154 4001 c-2 -2 -4 -78 -4 -168 l0 -164 73 3 72 3 0 165 0 165 -68
0 c-37 0 -70 -1 -73 -4z"/>
<path d="M3521 4000 c-5 -3 -9 -78 -9 -167 l-1 -163 75 0 74 0 0 168 0 167
-65 0 c-36 1 -69 -2 -74 -5z"/>
<path d="M3954 4001 c-2 -2 -4 -78 -4 -168 l0 -164 73 3 72 3 0 165 0 165 -68
0 c-38 0 -70 -2 -73 -4z"/>
<path d="M4526 4000 c-2 -3 -3 -78 -3 -167 l0 -163 73 0 74 0 0 168 0 168 -71
0 c-39 0 -72 -3 -73 -6z"/>
<path d="M5096 4000 c-2 -5 0 -294 3 -317 1 -9 21 -13 65 -13 39 0 67 5 73 13
5 6 9 82 9 167 l-1 155 -74 0 c-40 0 -74 -2 -75 -5z"/>
<path d="M5535 4000 c-1 -3 -2 -77 -1 -165 l1 -160 73 -3 72 -3 1 33 c3 115
-1 291 -6 297 -8 7 -135 9 -140 1z"/>
<path d="M5897 3995 c-3 -9 -2 -300 2 -317 2 -14 141 -9 142 5 1 17 1 288 0
307 -1 13 -15 16 -71 15 -38 0 -71 -4 -73 -10z"/>
<path d="M6185 4001 c-3 -2 -5 -78 -5 -168 l0 -163 75 0 75 0 -2 167 -3 167
-68 1 c-37 1 -70 -1 -72 -4z"/>
</g>
</svg>
