<?xml version="1.0" standalone="no"?>
<!DOCTYPE svg PUBLIC "-//W3C//DTD SVG 20010904//EN"
 "http://www.w3.org/TR/2001/REC-SVG-20010904/DTD/svg10.dtd">
<svg version="1.0" xmlns="http://www.w3.org/2000/svg"
 width="1080.000000pt" height="1080.000000pt" viewBox="0 0 1080.000000 1080.000000"
 preserveAspectRatio="xMidYMid meet">
<metadata>
Created by potrace 1.14, written by Peter Selinger 2001-2017
</metadata>
<g transform="translate(0.000000,1080.000000) scale(0.100000,-0.100000)"
fill="#000000" stroke="none">
<path d="M5168 9735 c-3 -3 -80 -10 -208 -20 -30 -2 -68 -6 -85 -9 -16 -3 -50
-8 -75 -11 -25 -3 -54 -8 -65 -10 -11 -1 -45 -7 -75 -11 -58 -8 -69 -10 -72
-13 -2 -2 -16 -4 -31 -6 -15 -2 -67 -13 -115 -25 -48 -12 -97 -24 -109 -26
-12 -2 -35 -9 -50 -15 -16 -6 -30 -10 -33 -10 -14 1 -237 -65 -290 -86 -8 -3
-24 -8 -34 -10 -11 -2 -24 -7 -30 -11 -6 -5 -33 -16 -61 -26 -27 -10 -57 -20
-65 -23 -8 -4 -18 -5 -22 -5 -5 1 -8 -3 -8 -8 0 -6 -5 -10 -10 -10 -6 0 -27
-7 -48 -17 -20 -9 -39 -17 -43 -17 -9 -2 -364 -180 -374 -188 -13 -11 -171
-106 -207 -125 -16 -8 -28 -19 -28 -25 0 -6 -3 -9 -6 -5 -11 11 -339 -235
-485 -363 -98 -86 -319 -308 -394 -394 -33 -39 -67 -77 -75 -86 -8 -9 -44 -54
-80 -100 -35 -47 -68 -86 -72 -88 -4 -2 -8 -9 -8 -15 0 -6 -9 -20 -19 -31 -11
-12 -58 -79 -105 -151 -47 -71 -93 -139 -101 -150 -8 -10 -15 -23 -15 -27 0
-4 -17 -36 -38 -70 -20 -35 -46 -81 -57 -103 -11 -22 -24 -43 -28 -46 -5 -3
-8 -9 -8 -13 0 -3 -23 -54 -51 -113 -29 -60 -51 -111 -50 -115 1 -5 -3 -8 -8
-8 -5 0 -9 -3 -8 -7 1 -5 -5 -21 -12 -38 -7 -16 -14 -32 -15 -35 -2 -6 -14
-35 -32 -80 -18 -41 -53 -139 -58 -160 -2 -8 -12 -35 -21 -60 -9 -25 -25 -76
-36 -115 -29 -103 -59 -218 -64 -237 -2 -10 -6 -26 -8 -35 -12 -46 -45 -212
-51 -248 -3 -23 -7 -52 -10 -65 -2 -13 -7 -44 -10 -69 -3 -25 -8 -62 -10 -81
-7 -52 -15 -126 -20 -200 -3 -36 -7 -84 -10 -107 -4 -30 -1 -43 7 -43 10 0 10
-2 0 -9 -10 -6 -12 -53 -8 -222 3 -118 7 -232 10 -254 2 -22 7 -69 11 -105 6
-71 10 -100 19 -175 13 -100 15 -116 20 -123 3 -5 6 -27 7 -50 2 -23 5 -42 8
-42 4 0 7 -10 7 -22 1 -13 5 -39 9 -58 4 -19 8 -43 8 -52 1 -10 5 -18 10 -18
4 0 6 -3 3 -8 -2 -4 2 -32 10 -62 9 -30 17 -63 19 -73 2 -9 6 -21 9 -25 3 -5
7 -19 9 -33 8 -40 27 -113 36 -134 5 -11 25 -67 44 -125 42 -126 70 -203 77
-210 3 -3 11 -23 19 -45 8 -22 45 -105 84 -185 39 -80 69 -148 69 -153 -1 -4
2 -7 8 -7 5 0 10 -9 10 -20 0 -11 5 -20 10 -20 6 0 10 -4 10 -10 0 -5 18 -39
40 -75 22 -36 40 -68 40 -71 0 -3 18 -32 40 -64 22 -32 40 -63 40 -68 0 -5 7
-15 15 -22 9 -7 23 -28 31 -46 9 -19 20 -34 25 -34 5 0 9 -6 9 -14 0 -8 3 -16
7 -18 12 -5 103 -127 103 -137 0 -5 3 -11 8 -13 4 -1 34 -37 67 -78 32 -41 64
-80 70 -87 98 -111 141 -156 255 -272 74 -75 164 -161 200 -191 36 -30 72 -62
81 -70 9 -8 28 -24 43 -34 15 -11 37 -28 49 -38 52 -45 63 -54 88 -70 14 -9
34 -24 43 -33 9 -9 16 -14 16 -11 0 6 28 -15 55 -41 7 -7 15 -9 19 -6 3 4 6 1
6 -5 0 -7 6 -12 14 -12 8 0 16 -7 20 -15 3 -8 12 -15 19 -15 8 0 25 -10 38
-22 14 -13 27 -24 29 -25 33 -10 58 -28 53 -36 -3 -6 -1 -7 4 -4 6 4 26 -4 44
-16 19 -13 41 -26 49 -30 8 -4 33 -18 55 -31 49 -30 340 -176 410 -206 82 -35
89 -38 110 -46 11 -4 22 -8 25 -9 3 -1 16 -6 30 -12 14 -6 61 -23 105 -38 44
-15 87 -30 95 -33 18 -6 13 -5 70 -21 25 -7 59 -18 75 -24 17 -7 35 -12 40
-13 6 -1 30 -7 55 -15 55 -15 49 -14 140 -34 80 -18 143 -31 200 -41 19 -3 46
-8 60 -10 14 -2 43 -6 65 -9 22 -3 72 -10 110 -16 39 -6 95 -12 125 -14 30 -2
87 -7 125 -11 199 -20 664 -4 875 30 14 2 45 7 70 10 25 3 55 8 66 10 46 9
100 18 124 21 14 1 32 5 41 9 9 4 20 6 25 5 5 -1 16 0 24 4 15 5 104 26 131
30 8 2 19 5 24 8 6 4 18 5 28 4 9 -2 17 0 17 5 0 6 31 16 85 26 6 1 15 3 20 4
6 1 13 2 18 1 4 0 7 3 7 7 0 5 6 9 13 10 21 1 49 10 120 35 37 14 67 24 67 22
0 -2 24 6 53 19 74 32 91 39 102 41 6 0 22 6 38 13 67 29 82 35 90 34 4 -1 7
2 7 8 0 5 4 10 9 10 5 0 30 10 57 22 27 12 52 21 57 20 4 -1 7 3 7 9 0 5 4 8
9 5 5 -4 11 -3 13 1 4 11 90 53 106 53 6 0 12 4 12 9 0 10 30 23 41 18 3 -1
13 6 23 15 10 10 24 18 32 18 8 0 14 4 14 8 0 5 15 16 33 25 87 45 349 213
355 229 2 4 10 8 18 8 8 0 14 5 14 10 0 6 7 10 15 10 8 0 15 5 15 10 0 6 7 10
16 10 8 0 12 4 9 10 -3 5 -1 10 5 10 6 0 21 9 33 21 12 11 47 39 77 62 30 23
67 53 81 67 15 14 43 39 63 55 58 47 336 325 391 390 28 32 61 71 75 86 14 15
34 40 45 55 11 16 32 42 46 59 44 50 187 253 216 305 15 28 31 50 36 50 4 0 7
6 7 13 0 7 8 22 18 33 10 10 24 34 31 51 7 18 17 33 21 33 4 0 10 8 13 18 3 9
14 31 24 47 9 17 24 41 32 55 9 14 16 31 17 38 2 8 10 22 18 31 9 10 13 21 9
24 -3 4 -1 7 5 7 7 0 12 8 12 18 0 10 4 22 9 28 8 7 58 116 116 249 14 33 27
69 25 73 0 1 6 15 14 30 14 27 75 194 81 222 2 8 11 37 20 64 9 26 19 57 21
67 5 22 7 31 33 124 11 39 22 84 25 100 3 17 8 40 11 52 12 52 14 62 20 99 8
45 13 69 15 69 1 0 4 18 6 40 7 57 12 90 14 90 1 0 3 18 5 40 1 22 6 59 9 83
8 49 16 131 21 217 2 33 4 60 5 60 6 0 3 458 -3 462 -4 3 -3 11 4 19 6 8 8 14
3 14 -5 0 -9 24 -9 53 0 28 -1 56 -4 61 -2 5 -6 30 -7 55 -2 25 -6 64 -10 86
-3 22 -7 56 -9 75 -2 19 -4 35 -5 35 -1 0 -3 14 -5 30 -2 17 -7 46 -10 65 -3
19 -7 44 -9 55 -16 97 -22 134 -26 138 -2 3 -9 35 -15 67 -2 14 -4 25 -5 25
-1 0 -3 7 -5 15 -10 46 -15 68 -24 100 -20 75 -32 116 -38 130 -3 8 -5 20 -4
27 1 6 -3 14 -9 18 -5 3 -10 15 -10 26 0 10 -4 27 -9 37 -13 25 -92 245 -93
260 -1 6 -5 12 -10 12 -4 0 -8 8 -8 18 0 10 -3 22 -7 26 -5 4 -8 11 -9 14 0 4
-11 30 -24 57 -13 28 -24 52 -25 55 0 3 -6 15 -13 28 -7 12 -9 22 -5 22 4 0 3
4 -2 8 -6 4 -38 63 -73 131 -59 116 -169 310 -182 321 -4 3 -15 21 -26 40 -10
19 -27 43 -36 54 -10 11 -18 25 -18 32 0 7 -4 14 -8 16 -4 2 -28 32 -52 68
-25 36 -48 67 -53 68 -4 2 -5 8 -1 13 3 5 -2 9 -10 9 -9 0 -16 5 -16 11 0 6
-6 16 -12 23 -7 7 -22 25 -33 41 -11 15 -30 40 -42 54 -13 14 -32 37 -44 51
-130 157 -373 401 -518 520 -24 19 -50 42 -60 51 -9 8 -54 44 -101 79 -47 35
-88 69 -92 74 -5 7 -8 7 -8 1 0 -6 -3 -6 -8 1 -7 11 -118 94 -125 94 -3 0 -32
18 -65 40 -33 22 -65 40 -71 40 -6 0 -11 4 -11 8 0 5 -12 15 -27 23 -15 8 -57
32 -93 53 -69 42 -400 206 -400 199 0 -2 -12 3 -27 11 -16 9 -64 29 -108 46
-44 17 -89 35 -100 40 -26 11 -159 54 -163 51 -1 -1 -16 6 -32 14 -16 8 -32
15 -35 15 -12 0 -37 5 -55 12 -14 6 -138 38 -205 54 -16 4 -34 8 -40 10 -24 7
-203 43 -240 49 -23 3 -52 7 -65 10 -14 3 -46 7 -71 10 -25 3 -56 7 -68 10
-12 2 -57 7 -99 10 -42 4 -93 9 -112 12 -41 5 -546 13 -552 8z m567 -109 c104
-8 197 -18 218 -22 12 -3 45 -7 72 -10 28 -2 57 -7 65 -10 8 -3 32 -8 53 -10
21 -2 47 -8 56 -14 10 -5 21 -7 24 -4 2 3 31 -2 63 -10 33 -8 73 -18 89 -21
40 -8 60 -13 60 -15 0 -1 9 -3 20 -4 11 -2 47 -11 80 -20 33 -10 65 -19 70
-21 6 -1 17 -5 25 -8 8 -3 40 -13 70 -23 30 -9 60 -19 65 -23 6 -3 12 -6 15
-7 27 -5 80 -23 155 -54 50 -20 93 -37 97 -38 5 -1 34 -14 65 -29 32 -15 60
-27 63 -28 18 -3 166 -80 172 -89 4 -6 8 -8 8 -4 0 4 17 -2 38 -14 20 -11 62
-35 92 -51 30 -17 73 -41 95 -54 22 -13 48 -26 58 -30 9 -3 17 -9 17 -14 0 -5
7 -9 15 -9 8 0 15 -4 15 -9 0 -5 15 -16 34 -25 18 -8 39 -22 46 -31 7 -8 17
-15 22 -15 5 0 15 -6 23 -12 24 -24 50 -44 56 -43 3 0 19 -10 35 -22 113 -87
140 -108 146 -117 4 -6 8 -8 8 -3 0 4 8 -1 19 -10 10 -10 42 -38 71 -63 29
-25 78 -67 109 -95 94 -85 381 -379 381 -390 0 -3 8 -13 18 -23 40 -43 80 -92
74 -92 -4 0 -2 -4 4 -8 10 -7 121 -151 154 -202 8 -12 20 -28 25 -34 14 -16
42 -60 43 -69 2 -7 12 -21 40 -52 6 -7 12 -16 12 -20 0 -3 18 -34 40 -69 22
-35 40 -68 40 -74 0 -6 4 -12 9 -14 15 -5 150 -276 231 -463 22 -50 91 -226
95 -240 1 -5 4 -17 7 -25 3 -8 13 -42 23 -75 9 -33 19 -67 22 -75 2 -8 4 -17
4 -20 1 -3 5 -11 11 -17 6 -7 8 -13 5 -13 -4 0 0 -18 8 -40 8 -22 12 -40 9
-40 -2 0 0 -8 5 -17 5 -10 11 -31 14 -48 11 -58 18 -89 22 -96 3 -4 7 -24 10
-45 4 -22 8 -46 10 -54 3 -8 7 -33 11 -55 3 -22 7 -42 9 -45 2 -3 7 -33 10
-65 4 -33 9 -69 12 -80 2 -11 6 -40 9 -65 3 -25 7 -58 9 -75 13 -78 18 -211
18 -440 0 -204 -6 -410 -13 -410 -1 0 -3 -18 -4 -40 -2 -22 -7 -60 -11 -85 -4
-25 -9 -61 -10 -80 -2 -19 -4 -35 -5 -35 -1 0 -3 -9 -4 -20 -1 -11 -6 -38 -11
-60 -4 -22 -9 -47 -10 -55 -2 -8 -5 -30 -9 -47 -3 -18 -8 -45 -11 -60 -4 -24
-35 -148 -51 -208 -3 -11 -7 -27 -9 -35 -1 -8 -5 -22 -8 -30 -3 -8 -17 -55
-32 -105 -27 -91 -80 -238 -112 -310 -9 -22 -17 -42 -17 -45 -2 -12 -100 -227
-114 -247 -8 -13 -10 -23 -6 -23 5 0 4 -4 -2 -8 -6 -4 -26 -38 -45 -77 -18
-38 -36 -72 -39 -75 -3 -3 -10 -14 -16 -25 -67 -124 -150 -255 -168 -267 -6
-4 -7 -8 -2 -8 5 0 0 -10 -11 -23 -11 -12 -35 -44 -54 -72 -18 -27 -37 -54
-41 -60 -5 -5 -22 -28 -39 -50 -51 -68 -83 -108 -97 -122 -7 -7 -11 -13 -8
-13 3 0 -5 -10 -17 -23 -12 -12 -44 -49 -72 -81 -70 -83 -428 -436 -442 -436
-2 0 -10 -6 -17 -12 -38 -37 -76 -67 -76 -61 0 5 -4 3 -8 -4 -7 -12 -62 -56
-102 -83 -12 -8 -28 -20 -34 -26 -6 -6 -24 -19 -41 -30 -36 -22 -50 -33 -75
-56 -10 -9 -21 -14 -24 -10 -3 3 -6 0 -6 -6 0 -7 -4 -12 -9 -12 -8 0 -101 -58
-127 -79 -6 -5 -29 -19 -50 -30 -21 -12 -70 -39 -109 -61 -93 -53 -290 -150
-304 -150 -6 0 -11 -4 -11 -10 0 -5 -7 -10 -15 -10 -13 0 -83 -29 -158 -66
-16 -8 -33 -14 -38 -14 -5 0 -26 -7 -47 -16 -20 -10 -41 -18 -47 -20 -5 -1
-53 -17 -105 -34 -52 -18 -106 -34 -120 -37 -13 -2 -28 -10 -32 -16 -4 -7 -8
-9 -8 -5 0 3 -39 -4 -87 -18 -49 -13 -103 -27 -122 -29 -19 -3 -37 -7 -41 -10
-4 -2 -22 -7 -41 -10 -19 -3 -68 -12 -109 -20 -41 -8 -86 -17 -100 -19 -14 -3
-25 -5 -25 -6 0 -1 -16 -3 -35 -5 -37 -4 -112 -12 -170 -20 -211 -26 -715 -27
-905 0 -16 2 -48 7 -70 10 -68 10 -139 18 -162 19 -13 1 -23 4 -23 7 0 3 -6 6
-12 6 -7 0 -33 3 -58 7 -25 4 -54 9 -65 11 -11 2 -58 13 -105 24 -47 12 -98
24 -114 27 -16 2 -37 9 -47 15 -11 5 -19 7 -19 3 0 -3 -6 -2 -12 4 -7 6 -15
10 -18 10 -40 1 -328 98 -465 158 -22 10 -42 18 -45 18 -25 4 -390 188 -390
198 0 5 -4 7 -8 4 -5 -3 -25 6 -45 19 -20 14 -38 25 -42 25 -3 0 -27 15 -54
34 -27 19 -51 33 -53 30 -3 -2 -13 5 -23 16 -10 11 -24 20 -32 20 -7 0 -13 5
-13 10 0 6 -7 10 -15 10 -8 0 -15 5 -15 10 0 6 -4 10 -9 10 -13 0 -280 198
-352 260 -151 132 -344 320 -444 434 -33 38 -69 78 -80 90 -35 38 -180 229
-225 296 -8 12 -21 28 -28 36 -6 7 -12 15 -12 18 0 4 -16 29 -35 56 -19 27
-35 52 -35 55 0 3 -9 15 -20 27 -11 12 -20 28 -20 35 0 7 -4 13 -9 13 -5 0
-13 10 -17 23 -3 12 -15 34 -25 48 -10 14 -19 32 -21 40 -2 8 -6 16 -9 19 -10
8 -141 267 -173 340 -47 108 -99 235 -102 250 0 3 -3 12 -7 20 -9 23 -67 193
-72 210 -2 8 -10 36 -18 63 -8 26 -13 47 -11 47 3 0 0 8 -5 18 -6 11 -12 30
-15 43 -6 28 -9 40 -30 130 -8 37 -17 78 -20 90 -3 13 -7 34 -10 46 -2 11 -8
43 -12 70 -3 26 -9 57 -11 68 -3 11 -6 40 -8 65 -2 25 -4 45 -5 45 -6 0 -13
68 -27 245 -13 171 -6 673 11 765 4 22 17 123 22 173 2 18 5 41 8 50 5 16 16
76 21 117 1 11 3 20 4 20 2 0 5 18 7 40 3 21 10 45 15 52 6 7 8 17 4 23 -4 6
-2 16 3 23 6 7 10 17 11 22 0 20 13 81 26 125 8 25 24 79 36 120 13 41 24 77
24 80 0 3 9 30 20 60 11 30 20 57 20 60 1 3 5 14 10 25 4 11 17 43 28 70 10
28 24 61 30 75 5 14 9 31 8 38 -1 6 3 12 9 12 5 0 9 3 8 8 0 4 2 14 5 22 4 8
11 26 17 40 5 14 14 32 19 40 11 17 23 53 21 59 -1 2 2 7 7 10 4 3 37 63 73
133 35 70 67 125 70 123 3 -2 7 6 7 17 1 12 6 24 11 27 5 3 12 14 15 25 7 18
196 306 207 316 3 3 16 22 29 43 12 20 27 37 32 37 5 0 8 3 7 8 -3 7 25 43 65
84 9 10 17 21 16 24 0 5 26 37 134 158 146 164 399 404 536 508 31 24 62 48
69 55 7 7 26 20 42 30 17 9 30 21 30 25 0 4 7 8 15 8 8 0 15 5 15 11 0 5 5 7
10 4 6 -3 10 -2 10 3 0 5 24 24 53 42 28 19 58 40 65 47 7 7 20 13 28 13 8 0
14 5 14 10 0 6 7 10 15 10 8 0 15 3 15 8 0 6 60 45 67 44 3 -1 116 66 128 75
6 5 42 24 80 42 39 19 73 38 76 43 3 6 9 10 12 10 19 0 47 12 47 19 0 5 3 8 8
7 4 -1 30 8 57 21 112 52 205 90 205 84 0 -3 6 -1 13 5 16 14 147 63 147 55 0
-3 6 -1 13 4 6 6 44 20 82 32 39 13 77 25 85 28 22 9 21 9 65 18 22 4 45 11
50 15 6 4 28 11 50 15 22 5 47 10 55 12 8 2 24 6 35 8 11 2 47 11 80 19 73 17
120 26 160 30 17 2 30 4 30 5 0 5 98 20 170 27 28 2 61 7 74 9 13 2 72 7 130
11 58 3 107 7 108 8 5 4 505 -3 558 -8z"/>
<path d="M7000 7678 c0 -5 -4 -6 -10 -3 -5 3 -10 2 -10 -3 0 -5 -10 -13 -22
-17 -13 -4 -25 -8 -28 -9 -7 -3 -123 -58 -185 -87 -27 -12 -53 -22 -57 -21 -5
1 -8 -2 -8 -8 0 -5 -3 -9 -7 -8 -5 0 -25 -7 -46 -16 -42 -18 -150 -67 -212
-96 -22 -10 -47 -21 -55 -24 -8 -3 -22 -10 -30 -15 -14 -9 -109 -53 -120 -55
-3 -1 -12 -6 -21 -11 -15 -9 -14 -16 13 -70 16 -33 28 -61 28 -63 0 -1 6 -15
14 -31 9 -16 12 -31 9 -35 -4 -3 -1 -6 5 -6 7 0 12 -4 12 -9 0 -5 10 -30 22
-57 12 -27 21 -52 20 -56 -1 -5 3 -8 8 -8 6 0 10 -4 10 -10 0 -5 26 -67 59
-137 32 -70 69 -150 81 -178 12 -27 34 -75 48 -105 15 -30 27 -57 27 -60 1 -3
11 -24 23 -47 26 -49 29 -78 8 -70 -8 3 -17 1 -20 -6 -2 -7 -5 -7 -5 -2 -1 11
-92 12 -110 1 -5 -4 -12 -3 -15 2 -5 9 -104 7 -113 -2 -4 -3 -12 -1 -20 5 -9
9 -13 8 -13 0 0 -8 -6 -9 -17 -2 -22 11 -34 11 -55 0 -9 -5 -19 -6 -22 -1 -5
9 -104 7 -113 -2 -4 -3 -12 -1 -20 5 -9 9 -13 8 -13 0 0 -8 -6 -9 -17 -2 -22
11 -34 11 -55 0 -9 -5 -19 -6 -22 -1 -5 9 -104 7 -113 -2 -4 -3 -12 -1 -20 5
-9 9 -13 8 -13 0 0 -8 -6 -9 -17 -4 -21 10 -752 9 -776 0 -9 -3 -18 -3 -21 1
-5 9 -105 7 -113 -2 -4 -3 -12 -1 -20 5 -9 9 -13 8 -13 0 0 -9 -6 -9 -22 0
-13 7 -25 11 -28 10 -3 -2 -13 -7 -22 -12 -9 -5 -19 -6 -22 -1 -5 9 -104 7
-113 -2 -4 -3 -12 -1 -20 5 -9 9 -13 8 -13 0 0 -8 -6 -9 -17 -2 -22 11 -34 11
-55 0 -9 -5 -19 -6 -22 -1 -5 9 -104 7 -113 -2 -4 -3 -12 -1 -20 5 -9 9 -13 8
-13 0 0 -9 -6 -9 -22 0 -13 7 -25 11 -28 10 -3 -2 -13 -7 -22 -12 -9 -5 -19
-6 -22 -1 -5 9 -104 7 -113 -2 -4 -3 -12 -1 -20 5 -9 9 -13 8 -13 0 0 -9 -6
-9 -22 0 -13 7 -25 11 -28 10 -3 -2 -13 -7 -22 -12 -9 -5 -19 -6 -22 -1 -5 9
-104 7 -113 -2 -4 -3 -12 -1 -20 5 -10 9 -13 8 -13 0 0 -7 -5 -9 -11 -5 -15 9
-132 9 -147 0 -6 -3 -13 -3 -16 2 -5 9 -104 7 -113 -2 -4 -3 -12 -1 -20 5 -9
9 -13 8 -13 0 0 -9 -6 -9 -22 0 -13 7 -23 12 -23 12 0 0 -10 -5 -22 -11 -12
-7 -24 -9 -27 -4 -5 9 -104 7 -113 -2 -4 -3 -12 -1 -20 5 -9 9 -13 8 -13 0 0
-9 -6 -9 -22 0 -13 7 -25 11 -28 10 -3 -2 -13 -7 -22 -12 -9 -5 -19 -6 -22 -1
-5 9 -104 7 -113 -2 -4 -3 -12 -1 -20 5 -9 9 -13 8 -13 0 0 -9 -6 -9 -22 0
-13 7 -25 11 -28 10 -3 -2 -13 -7 -22 -12 -9 -5 -19 -6 -22 -1 -5 9 -104 7
-113 -2 -4 -3 -12 -1 -20 5 -9 9 -13 8 -13 0 0 -9 -6 -9 -22 0 -13 7 -25 11
-28 10 -3 -2 -13 -7 -22 -12 -9 -5 -19 -6 -22 -1 -5 9 -104 7 -113 -2 -4 -3
-12 -1 -20 5 -10 9 -13 8 -13 0 0 -7 -5 -9 -11 -5 -15 9 -132 9 -147 0 -6 -3
-13 -3 -16 2 -5 9 -104 7 -113 -2 -4 -3 -12 -1 -20 5 -10 9 -13 8 -13 0 0 -7
-5 -9 -12 -5 -17 10 -68 12 -68 3 0 -5 -6 -6 -12 -4 -10 4 -13 -91 -12 -455 1
-253 4 -463 7 -467 4 -3 74 -6 157 -6 l150 0 -2 -296 -3 -296 -308 0 -307 0 0
-466 0 -467 150 2 c93 1 151 -3 154 -9 2 -5 4 -172 4 -370 0 -198 1 -364 2
-370 1 -5 2 -14 1 -18 -1 -4 7 -4 16 1 10 5 36 7 58 5 22 -2 47 -3 55 -3 8 0
35 0 60 0 25 0 52 0 60 0 70 1 119 2 140 1 28 -1 116 -2 140 -1 8 0 35 0 60 0
25 0 52 0 60 0 8 0 35 0 60 0 25 0 52 0 60 0 8 0 35 0 60 0 25 0 52 0 60 0 8
0 35 0 60 0 25 0 52 0 60 0 8 0 35 0 60 0 25 0 52 0 60 0 8 0 35 0 60 0 25 0
52 0 60 0 8 0 35 0 60 0 25 0 52 0 60 0 8 0 35 0 60 0 25 0 52 0 60 0 8 0 35
0 60 0 25 0 52 0 60 0 8 0 35 0 60 0 25 0 52 0 60 0 8 0 35 0 60 0 25 0 52 0
60 0 8 0 35 0 60 0 25 0 52 0 60 0 8 0 35 0 60 0 25 0 52 0 60 0 8 0 35 0 60
0 25 0 52 0 60 0 8 0 35 0 60 0 25 0 52 0 60 0 8 0 35 0 60 0 25 0 52 0 60 0
8 0 35 0 60 0 25 0 52 0 60 0 8 0 35 0 60 0 25 0 52 0 60 0 8 0 35 0 60 0 25
0 52 0 60 0 8 0 413 1 900 3 l885 2 0 98 c0 53 4 97 8 97 5 0 5 5 1 11 -9 15
-9 182 0 197 4 7 4 12 -1 12 -10 0 -9 132 1 149 4 6 4 11 -1 11 -4 0 -8 41 -8
90 0 50 4 90 8 90 5 0 5 5 1 11 -4 7 -7 46 -8 88 l-1 76 -145 1 c-80 1 -149 2
-155 3 -8 1 -13 480 -6 572 1 14 37 16 304 17 166 1 307 3 312 4 8 1 12 208 5
228 -2 3 -1 10 0 15 2 13 2 207 0 220 -1 6 -1 15 0 20 6 24 5 72 -2 93 -4 12
-5 22 -2 22 7 0 35 -28 33 -32 -2 -3 16 -45 52 -123 130 -281 162 -352 162
-362 0 -7 4 -13 9 -13 4 0 8 -5 8 -11 0 -5 15 -40 32 -77 18 -37 33 -73 35
-81 1 -8 7 -17 13 -21 7 -4 11 -10 10 -14 0 -3 9 -28 21 -54 12 -26 23 -49 23
-52 1 -3 10 -23 20 -45 11 -22 35 -74 54 -115 19 -41 43 -93 53 -114 11 -22
19 -45 19 -51 0 -6 5 -16 12 -23 6 -6 13 -17 14 -24 1 -7 27 -66 58 -131 31
-65 56 -120 56 -122 0 -3 20 -46 44 -97 41 -87 61 -130 116 -253 13 -27 34
-75 48 -105 15 -30 26 -57 27 -60 0 -3 9 -20 18 -37 10 -18 17 -34 17 -35 1
-17 14 -48 21 -48 5 0 9 -6 9 -14 0 -7 7 -19 15 -26 12 -10 18 -10 30 0 8 7
15 10 15 6 0 -4 20 5 45 19 25 13 47 25 50 25 3 0 18 6 34 14 16 9 31 12 35 9
3 -4 6 -2 6 4 0 6 10 14 23 18 12 4 24 8 27 9 3 1 19 9 36 19 17 9 34 13 38
10 3 -4 6 -1 6 5 0 7 5 12 10 12 6 0 49 18 96 40 47 22 90 40 95 40 5 0 9 4 9
8 0 5 6 9 13 9 6 0 48 17 92 38 44 21 104 48 133 61 56 25 60 32 36 69 -9 14
-13 25 -9 25 5 0 1 8 -8 18 -8 9 -16 20 -17 24 0 4 -8 25 -17 45 -9 21 -17 40
-18 43 -1 3 -14 32 -30 65 -15 33 -40 87 -55 120 -66 145 -84 183 -108 235
-15 30 -27 57 -27 60 0 3 -18 41 -40 85 -21 44 -40 83 -41 88 -1 4 -3 9 -4 12
-1 3 -3 9 -4 14 0 6 -7 16 -13 22 -7 7 -13 19 -13 26 0 7 -9 28 -20 48 -11 19
-19 36 -19 38 1 1 -13 34 -31 72 -18 39 -44 95 -58 125 -14 30 -40 88 -58 128
-19 39 -34 77 -34 82 0 6 -5 10 -12 10 -6 0 -9 3 -5 6 3 3 -6 27 -19 54 -13
26 -24 53 -24 59 0 6 -4 11 -8 11 -5 0 -9 6 -9 13 0 6 -15 44 -33 82 -42 89
-91 195 -123 265 -51 113 -81 177 -120 260 -22 47 -42 94 -44 104 -2 11 -10
27 -18 36 -8 9 -15 21 -15 27 0 6 -17 44 -37 84 -20 41 -38 76 -38 79 -4 13
-29 71 -54 125 -79 165 -104 221 -104 233 0 6 -4 12 -9 12 -4 0 -8 4 -8 10 0
5 -11 34 -25 65 -14 30 -24 57 -23 59 2 2 -6 14 -17 26 -11 12 -19 24 -18 26
3 5 -26 72 -108 249 -13 28 -23 52 -24 55 0 3 -9 21 -20 40 -10 19 -20 40 -21
45 -1 6 -22 53 -46 105 -25 52 -58 124 -74 160 -15 36 -32 67 -36 68 -4 2 -8
10 -8 17 0 12 -40 102 -113 255 -17 36 -31 67 -32 70 0 3 -6 15 -13 26 -6 12
-9 23 -7 26 3 3 -2 5 -10 5 -8 0 -15 -4 -15 -9z m-19 -316 c23 -48 42 -93 42
-99 0 -7 4 -13 9 -13 4 0 8 -4 8 -9 0 -9 19 -52 96 -219 19 -40 34 -77 34 -82
0 -6 5 -10 10 -10 6 0 10 -8 10 -18 0 -10 3 -22 8 -26 4 -4 7 -11 8 -14 0 -4
11 -29 24 -57 13 -27 25 -52 25 -55 1 -3 16 -36 34 -75 53 -109 74 -159 73
-167 -1 -3 5 -12 13 -18 8 -7 15 -18 15 -24 0 -7 11 -34 24 -62 13 -27 31 -67
41 -89 9 -22 30 -67 46 -100 16 -33 29 -66 29 -73 0 -6 5 -12 10 -12 6 0 10
-7 10 -15 0 -8 4 -23 10 -33 5 -9 28 -57 51 -107 23 -49 52 -114 65 -142 14
-29 25 -55 25 -58 0 -2 19 -42 41 -87 23 -46 43 -89 44 -95 4 -24 29 -73 36
-73 5 0 8 -7 8 -15 0 -8 4 -23 10 -33 21 -39 50 -107 50 -119 0 -7 5 -13 10
-13 6 0 10 -4 10 -10 0 -5 14 -39 30 -75 17 -36 44 -95 61 -132 17 -38 41 -90
54 -118 58 -130 79 -175 106 -232 16 -34 29 -67 29 -72 0 -6 5 -11 10 -11 6 0
9 -3 8 -7 -2 -10 7 -31 65 -155 25 -54 43 -98 39 -98 -4 0 -2 -4 3 -8 13 -9
61 -113 57 -124 -1 -4 2 -8 8 -8 5 0 10 -4 10 -9 0 -5 10 -30 22 -57 12 -27
21 -52 20 -56 -1 -5 3 -8 8 -8 6 0 10 -5 10 -11 0 -5 28 -70 61 -142 66 -141
92 -199 94 -207 1 -4 46 -101 90 -195 l14 -30 -51 -23 c-28 -12 -54 -22 -59
-22 -5 0 -9 -5 -9 -12 0 -6 -3 -9 -6 -5 -4 3 -21 -1 -38 -10 -17 -10 -33 -18
-36 -18 -3 -1 -26 -11 -52 -23 -56 -26 -101 -44 -107 -42 -2 1 -7 -2 -10 -7
-3 -5 -33 -20 -66 -33 -33 -14 -70 -30 -81 -38 -23 -14 -26 -10 -97 148 -14
30 -37 82 -53 115 -15 33 -29 62 -29 65 -1 3 -12 28 -25 55 -13 28 -24 52 -25
55 -1 3 -13 29 -28 59 -15 30 -27 61 -27 68 0 7 -5 13 -11 13 -5 0 -7 5 -4 10
3 6 1 10 -4 10 -6 0 -10 3 -9 8 1 4 -7 25 -17 47 -10 22 -19 42 -20 45 0 3
-13 31 -28 63 -15 32 -27 62 -27 67 0 6 -4 10 -10 10 -5 0 -10 7 -10 15 0 8
-18 51 -39 95 -22 44 -40 83 -41 85 -1 6 -48 111 -75 170 -13 28 -40 86 -61
130 -21 44 -38 82 -39 85 -1 3 -16 36 -33 74 -18 38 -32 71 -32 73 0 2 -18 41
-41 86 -22 45 -41 84 -42 87 -3 20 -23 60 -29 60 -4 0 -8 6 -8 14 0 8 -18 52
-39 98 -21 45 -59 128 -84 183 -46 103 -104 230 -137 300 -74 158 -93 201 -94
206 -1 3 -9 21 -18 40 -50 102 -98 210 -98 219 0 5 -4 10 -10 10 -5 0 -9 3 -8
8 4 11 -36 102 -44 102 -5 0 -8 6 -8 14 0 8 -18 53 -40 100 -22 47 -40 90 -40
96 0 5 -4 10 -10 10 -5 0 -10 6 -10 13 0 7 -9 31 -19 53 -10 21 -54 116 -96
209 -100 221 -108 238 -143 315 -17 35 -28 68 -26 72 4 7 65 37 84 43 3 0 32
14 65 30 33 16 62 29 65 29 3 1 37 17 75 36 39 18 75 35 80 36 6 1 42 17 80
37 39 19 73 33 77 31 4 -3 26 -44 49 -92z m-375 -1465 l-1 -292 -52 0 c-29 0
-53 -2 -53 -5 0 -3 -13 -5 -30 -5 -16 0 -30 3 -30 6 0 8 -33 5 -48 -5 -6 -4
-12 -4 -12 1 0 4 -27 8 -60 8 -33 0 -60 -3 -60 -6 0 -4 -15 -3 -34 1 -19 4
-40 4 -47 -1 -7 -4 -17 -5 -23 -2 -11 7 -136 10 -136 3 0 -3 -13 -5 -30 -5
-16 0 -30 3 -30 6 0 8 -33 5 -48 -5 -6 -4 -12 -4 -12 1 0 4 -27 8 -60 8 -33 0
-60 -3 -60 -6 0 -4 -15 -3 -34 1 -19 4 -40 4 -47 -1 -7 -4 -17 -5 -23 -2 -11
7 -136 10 -136 3 0 -3 -13 -5 -30 -5 -16 0 -30 3 -30 6 0 8 -33 5 -48 -5 -6
-4 -12 -4 -12 1 0 4 -27 8 -60 8 -33 0 -60 -3 -60 -6 0 -4 -15 -3 -34 1 -19 4
-40 4 -47 -1 -7 -4 -20 -4 -28 0 -9 4 -25 6 -36 5 -21 -2 -69 -4 -97 -4 -10 0
-25 0 -33 0 -8 -1 -31 -1 -50 -1 -19 0 -42 0 -50 1 -8 0 -22 0 -30 0 -8 0 -22
0 -30 0 -8 -1 -31 -1 -50 -1 -19 0 -42 0 -50 1 -8 0 -22 0 -30 0 -8 0 -22 0
-30 0 -8 -1 -31 -1 -50 -1 -19 0 -42 0 -50 1 -8 0 -22 0 -30 0 -8 0 -22 0 -30
0 -8 -1 -31 -1 -50 -1 -19 0 -42 0 -50 1 -8 0 -22 0 -30 0 -8 0 -22 0 -30 0
-8 -1 -31 -1 -50 -1 -19 0 -42 0 -50 1 -8 0 -22 0 -30 0 -8 0 -22 0 -30 0 -8
-1 -31 -1 -50 -1 -19 0 -42 0 -50 1 -8 0 -22 0 -30 0 -8 0 -22 0 -30 0 -8 -1
-31 -1 -50 -1 -19 0 -42 0 -50 1 -8 0 -22 0 -30 0 -8 0 -22 0 -30 0 -8 -1 -31
-1 -50 -1 -19 0 -42 0 -50 1 -8 0 -22 0 -30 0 -8 0 -22 0 -30 0 -8 -1 -31 -1
-50 -1 -19 0 -42 0 -50 1 -8 0 -22 0 -30 0 -8 0 -22 0 -30 0 -8 -1 -31 -1 -50
-1 -19 0 -42 0 -50 1 -8 0 -22 0 -30 0 -8 0 -22 0 -30 0 -8 -1 -31 -1 -50 -1
-19 0 -42 0 -50 1 -8 0 -22 0 -30 0 -8 0 -22 0 -30 0 -8 -1 -31 -1 -50 -1 -19
0 -42 0 -50 1 -8 0 -22 0 -30 0 -8 0 -22 0 -30 0 -8 -1 -31 -1 -50 -1 -19 0
-42 0 -50 1 -8 0 -22 0 -30 0 -8 0 -22 0 -30 0 -8 -1 -31 -1 -50 -1 -19 0 -42
0 -50 1 -8 0 -22 0 -30 0 -8 0 -22 0 -30 0 -8 -1 -31 -1 -50 -1 -19 0 -42 0
-50 1 -8 0 -23 0 -32 0 -26 0 -63 1 -100 3 -18 1 -33 -2 -33 -7 0 -4 -6 -3
-13 3 -8 6 -17 8 -21 4 -9 -10 -76 -10 -76 0 0 4 -8 3 -18 -2 -43 -23 -44 -16
-43 407 l1 183 331 -1 c182 -1 333 0 334 2 2 2 811 2 1798 0 l1794 -2 -1 -293z
m182 56 c-1 -5 22 -56 50 -114 28 -59 52 -113 54 -120 2 -8 5 -16 8 -19 3 -3
15 -24 26 -47 25 -47 17 -67 -22 -53 -14 6 -26 6 -29 0 -3 -5 -13 -6 -21 -3
-9 3 -30 6 -46 7 -29 1 -31 4 -32 39 -1 20 3 37 7 37 5 0 5 5 1 11 -4 7 -6 67
-6 135 1 141 0 134 7 134 3 0 4 -3 3 -7z m131 -562 c-2 -20 0 -42 4 -48 4 -7
4 -14 -1 -16 -4 -3 -6 -23 -4 -44 4 -47 2 -104 -3 -113 -2 -3 0 -12 5 -19 4
-8 4 -26 0 -41 -4 -15 -4 -33 0 -40 4 -7 4 -25 0 -40 -4 -15 -4 -33 0 -40 4
-7 4 -25 0 -40 -4 -15 -4 -34 1 -43 6 -10 5 -18 -1 -22 -7 -4 -7 -13 0 -26 8
-14 7 -19 -2 -20 -7 -1 -966 -2 -2131 -3 -1874 -1 -2118 1 -2122 14 -2 8 -3
30 -1 48 1 17 -1 32 -6 32 -4 0 -5 6 -2 14 10 27 9 166 -1 166 -7 0 -7 3 0 8
12 8 14 82 2 82 -5 0 -5 5 -1 12 10 15 11 138 2 138 -4 0 -5 7 -1 16 3 9 6 25
7 37 l1 22 2052 1 c1129 0 2055 3 2057 5 2 2 36 2 75 1 l72 -4 -2 -37z m-626
-735 c2 -6 3 -139 3 -296 l-1 -285 -2127 0 c-1411 0 -2129 3 -2131 10 -3 9 -1
579 2 581 0 0 957 1 2126 1 1506 -1 2125 -4 2128 -11z m-3036 -759 c7 -4 14
-4 16 0 3 5 54 7 114 5 59 -1 113 -2 118 -2 6 0 53 1 105 3 52 1 105 0 116 -4
12 -4 25 -5 28 -2 10 10 96 10 96 0 0 -6 5 -6 13 0 6 5 35 8 62 6 28 -2 55 -4
60 -3 6 0 53 1 105 3 52 1 105 0 116 -4 12 -4 25 -5 28 -2 10 10 96 10 96 0 0
-6 5 -6 13 0 10 8 80 10 112 3 6 -1 12 -1 15 0 15 6 678 4 697 -2 12 -4 24 -4
27 0 2 4 53 6 113 4 134 -3 111 -3 223 1 52 1 105 -1 117 -5 12 -4 24 -4 27 0
2 4 53 6 113 4 59 -1 113 -2 118 -2 6 0 53 1 105 3 52 1 105 -1 117 -5 12 -4
24 -4 27 0 3 6 54 6 231 2 6 0 22 1 38 4 15 2 27 0 27 -6 0 -7 4 -7 13 -1 6 5
41 9 77 9 l65 -2 0 -294 0 -295 -2127 -1 -2128 0 -1 175 c-1 307 2 405 11 411
12 8 884 5 897 -3z"/>
<path d="M6835 7259 c-126 -60 -257 -119 -267 -119 -9 0 -9 -15 3 -60 2 -8 6
-17 9 -20 3 -3 14 -24 24 -46 l18 -42 67 30 c36 17 108 50 160 74 51 24 97 44
102 44 14 0 20 19 10 37 -5 10 -17 36 -27 58 -33 77 -32 77 -99 44z"/>
<path d="M6985 6964 c-77 -36 -205 -95 -252 -115 -24 -10 -43 -21 -43 -24 0
-6 7 -20 33 -71 9 -17 14 -34 10 -38 -3 -3 -2 -6 4 -6 6 0 13 -9 16 -21 5 -20
6 -20 54 4 26 13 72 35 102 48 30 13 87 40 127 59 l72 35 -36 77 -37 76 -50
-24z"/>
<path d="M7190 6601 c-8 -6 -18 -7 -22 -5 -4 3 -8 0 -8 -5 0 -6 -5 -11 -11
-11 -6 0 -49 -18 -95 -40 -47 -22 -89 -40 -94 -40 -6 0 -10 -5 -10 -11 0 -5
-4 -7 -10 -4 -5 3 -10 1 -10 -4 0 -6 -3 -10 -7 -9 -16 4 -51 -13 -57 -27 -3
-8 -1 -15 4 -15 6 0 10 -3 9 -7 -2 -16 14 -53 23 -53 6 0 8 -6 5 -14 -3 -8 3
-23 13 -34 10 -11 16 -23 12 -27 -4 -4 8 2 27 13 19 12 38 19 43 16 4 -3 8 -1
8 5 0 8 26 22 50 26 3 0 37 16 75 34 91 43 119 55 127 53 18 -4 12 30 -18 96
-19 39 -35 72 -36 72 -2 0 -10 -4 -18 -9z"/>
<path d="M7411 6153 c-1 -7 -4 -12 -8 -11 -5 1 -25 -6 -46 -15 -20 -9 -38 -16
-40 -16 -1 1 -24 -11 -52 -24 -27 -14 -81 -40 -120 -57 -38 -18 -71 -33 -72
-34 -2 -1 5 -20 16 -42 10 -21 24 -54 32 -71 14 -32 41 -44 54 -23 4 6 11 8
16 5 5 -4 9 -1 9 5 0 6 4 9 9 5 5 -3 16 1 24 9 8 8 17 13 20 10 2 -3 21 5 41
17 20 11 36 17 36 12 0 -4 4 -3 8 2 4 6 36 23 72 40 36 16 68 32 71 35 4 3
-10 41 -31 85 -21 44 -39 74 -39 68z"/>
<path d="M7594 5515 c-53 -27 -99 -48 -184 -85 -72 -31 -71 -28 -35 -102 18
-37 31 -69 28 -71 -2 -3 3 -7 12 -10 8 -4 15 -2 15 3 0 6 6 10 13 10 7 0 37
11 65 25 29 14 54 24 55 23 2 -2 12 4 21 12 10 8 28 16 39 17 12 2 24 8 25 13
2 6 8 10 13 10 14 0 99 39 99 46 0 3 -9 25 -20 50 -11 24 -25 55 -30 68 -12
31 -40 29 -116 -9z"/>
<path d="M7855 4909 c-121 -54 -192 -87 -215 -99 -20 -10 -15 -32 22 -107 29
-60 31 -62 51 -48 12 8 29 15 39 15 10 0 18 3 18 8 0 4 15 13 33 21 62 27 162
72 198 90 l36 17 -36 76 -36 76 -110 -49z"/>
<path d="M8160 4503 c0 -10 -36 -27 -52 -24 -5 1 -8 -3 -8 -9 0 -5 -3 -9 -7
-8 -5 1 -44 -15 -88 -36 -83 -39 -126 -59 -135 -60 -26 -6 -42 -26 -35 -42 5
-11 9 -21 10 -24 0 -3 9 -20 18 -37 10 -18 15 -33 12 -33 -2 0 3 -9 12 -19 16
-19 18 -19 47 -3 17 9 33 16 36 17 15 1 77 30 91 42 9 8 26 15 38 16 11 1 21
5 21 9 0 4 7 8 15 8 9 0 27 7 40 16 14 9 25 13 25 10 0 -4 9 2 21 13 l21 19
-27 58 c-29 63 -55 105 -55 87z"/>
<path d="M8168 4047 c-87 -40 -159 -76 -161 -82 -2 -5 11 -43 29 -83 29 -62
37 -71 52 -63 23 12 156 74 162 76 3 0 32 14 65 30 33 15 66 30 73 31 24 4 26
14 14 47 -7 18 -14 37 -15 42 -1 6 -4 12 -7 15 -3 3 -11 17 -17 33 -7 15 -18
27 -25 26 -7 0 -84 -33 -170 -72z"/>
<path d="M8438 3810 c-5 -9 -98 -50 -113 -50 -8 0 -15 -4 -15 -10 0 -5 -6 -10
-13 -10 -7 0 -28 -8 -47 -19 -19 -10 -39 -20 -45 -21 -37 -12 -65 -25 -65 -32
0 -3 5 -19 12 -35 6 -15 12 -35 14 -43 2 -8 8 -16 13 -18 6 -2 11 -11 11 -21
0 -31 19 -40 48 -25 15 8 68 33 117 55 218 99 205 91 185 127 -5 9 -19 38 -30
64 -17 40 -24 47 -45 46 -14 -1 -26 -5 -27 -8z"/>
<path d="M2500 6080 c-7 -4 -10 -65 -8 -191 l3 -184 77 -2 c46 -1 80 3 84 9
10 16 10 178 1 178 -5 0 -5 5 -2 10 8 13 12 130 5 130 -3 0 -6 12 -5 28 0 27
0 27 -72 28 -39 1 -77 -2 -83 -6z"/>
<path d="M2820 6075 c-6 -7 -8 -14 -6 -16 6 -6 8 -100 3 -161 -1 -27 -1 -48 2
-48 4 0 5 -33 3 -74 l-3 -73 85 0 86 0 0 189 c0 103 -3 189 -7 189 -39 8 -156
3 -163 -6z"/>
<path d="M3239 6081 c-1 -3 -2 -88 -3 -188 -3 -209 -11 -192 99 -190 l70 2 0
188 c0 103 -2 188 -5 188 -17 5 -160 4 -161 0z"/>
<path d="M3739 6086 c-1 -1 -2 -87 -3 -192 l-1 -191 85 0 86 0 -1 191 0 191
-82 1 c-46 1 -84 1 -84 0z"/>
<path d="M4393 5898 c0 -214 -9 -196 99 -196 41 0 68 4 70 12 2 6 4 92 3 191
l0 180 -86 0 -85 1 -1 -188z"/>
<path d="M5061 6081 c-8 -5 -10 -62 -9 -192 3 -205 -4 -186 73 -188 71 -1 95
3 96 19 4 70 3 360 -1 361 -27 5 -150 5 -159 0z"/>
<path d="M5554 5896 l1 -191 28 -1 c15 -1 30 -4 33 -7 4 -4 15 -2 26 4 13 7
23 7 32 0 9 -8 18 -7 31 3 17 12 19 30 19 191 1 108 -3 179 -9 183 -5 4 -44 7
-86 7 l-76 1 1 -190z"/>
<path d="M5969 6075 c0 -5 -1 -86 -2 -178 -2 -173 3 -214 25 -201 7 5 42 8 78
9 l65 0 2 175 c0 96 -1 182 -3 190 -3 13 -20 16 -84 16 -48 0 -80 -4 -81 -11z"/>
<path d="M6296 6080 c-1 -3 -2 -88 -2 -189 1 -176 2 -184 21 -188 11 -2 27 -4
35 -3 8 0 38 1 65 3 l50 2 1 180 c0 99 -1 185 -3 191 -4 11 -162 15 -167 4z"/>
<path d="M2809 5324 c-1 -2 -2 -12 -3 -21 -1 -10 -5 -24 -9 -30 -5 -7 -5 -13
0 -13 10 0 10 -131 0 -147 -5 -7 -4 -13 0 -13 4 0 8 -36 7 -79 l-1 -79 49 -4
c26 -1 48 1 48 6 0 5 6 4 13 -2 8 -7 18 -7 27 -2 9 6 17 5 22 -3 10 -15 10
-13 12 201 0 96 -1 177 -4 181 -5 7 -159 11 -161 5z"/>
<path d="M3135 5135 c1 -104 2 -193 3 -197 2 -7 41 -2 50 6 2 3 13 1 23 -4 12
-7 20 -7 24 0 5 8 11 8 20 0 9 -7 15 -8 19 -1 4 6 12 8 19 5 9 -3 12 36 10
168 0 95 -2 182 -2 193 -1 19 -8 21 -84 21 l-84 0 2 -191z"/>
<path d="M3552 5316 c-6 -8 -8 -328 -3 -368 1 -9 111 -15 111 -5 0 4 9 3 20
-3 14 -8 20 -8 20 0 0 6 4 9 9 6 5 -3 8 78 7 187 l-1 192 -78 1 c-44 0 -81 -4
-85 -10z"/>
<path d="M4049 5310 c-4 -52 0 -362 4 -367 8 -7 127 -9 127 -1 0 3 8 4 19 1
18 -5 19 4 17 189 l-1 193 -82 0 c-68 1 -83 -2 -84 -15z"/>
<path d="M4713 5321 c-11 -8 -10 -362 0 -379 6 -8 14 -9 27 -2 13 7 21 7 25 0
4 -6 12 -7 18 -3 6 4 30 6 52 4 l41 -2 -1 193 0 193 -77 1 c-43 0 -81 -2 -85
-5z"/>
<path d="M5373 5321 c-5 -3 -8 -88 -7 -191 2 -216 1 -207 14 -194 6 6 33 8 65
4 30 -3 55 -3 55 1 0 4 8 5 18 3 16 -5 17 9 17 188 l0 193 -76 1 c-42 1 -81
-1 -86 -5z"/>
<path d="M5869 5325 c-1 0 -2 -86 -3 -192 l-1 -191 38 -4 c21 -2 40 -1 43 1 2
3 24 4 47 2 l42 -2 0 193 0 193 -83 0 c-45 0 -83 0 -83 0z"/>
<path d="M6283 5317 c-3 -6 -7 -91 -7 -189 -1 -171 0 -179 19 -183 48 -10 85
-11 85 -3 0 5 9 4 19 -2 14 -7 22 -7 26 0 4 6 11 8 16 4 6 -3 8 67 7 188 l-3
193 -78 1 c-43 0 -81 -4 -84 -9z"/>
<path d="M6609 5316 c-1 -11 -1 -309 0 -358 1 -25 3 -27 25 -18 13 5 26 7 28
4 9 -8 89 -10 94 -2 3 5 9 6 14 3 5 -3 7 30 6 72 -1 43 2 84 7 91 5 6 6 12 1
12 -5 0 -8 46 -8 103 l2 103 -84 0 c-52 0 -84 -4 -85 -10z"/>
<path d="M2200 4557 c0 -5 -4 -5 -10 -2 -12 7 -11 19 -12 -191 -1 -94 1 -175
5 -180 4 -8 76 -10 154 -5 17 1 18 367 1 377 -17 11 -138 11 -138 1z"/>
<path d="M2509 4555 c-1 -14 -1 -335 0 -360 1 -19 7 -21 74 -20 39 0 77 4 83
8 11 6 17 336 7 364 -3 6 -11 14 -19 17 -10 4 -12 2 -8 -6 5 -7 3 -8 -6 -3
-19 12 -130 12 -131 0z"/>
<path d="M2938 4559 c-10 -5 -15 -19 -13 -34 1 -14 -1 -28 -6 -30 -4 -3 -4
-18 0 -33 5 -15 4 -37 0 -50 -5 -12 -5 -22 -1 -22 9 0 8 -53 -2 -68 -4 -7 -3
-12 1 -12 9 0 8 -74 -2 -89 -3 -5 -1 -12 5 -16 6 -4 8 -11 5 -16 -4 -5 1 -9 9
-10 21 -1 121 -1 144 0 16 1 17 17 17 186 0 176 -1 186 -20 192 -30 10 -95 9
-95 -1 0 -5 -6 -4 -13 2 -8 7 -18 7 -29 1z"/>
<path d="M3440 4560 c-14 -8 -24 -104 -19 -185 0 -11 0 -28 0 -37 0 -10 -1
-24 -1 -30 0 -16 7 -121 9 -128 2 -8 150 -4 158 4 4 3 7 89 7 190 1 102 -1
182 -3 180 -2 -2 -10 1 -18 7 -9 9 -13 8 -13 0 0 -8 -6 -9 -17 -4 -22 10 -65
9 -83 -2 -9 -5 -11 -4 -6 3 9 14 6 15 -14 2z"/>
<path d="M4110 4559 c0 -4 -6 -6 -14 -3 -15 6 -30 -22 -16 -31 6 -3 6 -15 0
-30 -6 -15 -6 -27 0 -30 7 -4 7 -13 0 -24 -6 -12 -5 -22 1 -28 8 -8 7 -17 0
-32 -8 -15 -9 -21 -1 -21 6 0 8 -5 4 -12 -9 -14 -8 -114 1 -128 3 -6 1 -10 -4
-10 -8 0 -8 -5 0 -18 9 -14 24 -17 85 -16 41 1 77 3 79 6 5 5 9 124 5 143 -1
6 -2 15 -1 20 4 22 1 208 -3 212 -8 8 -66 10 -66 2 0 -4 -16 -3 -35 1 -19 4
-35 4 -35 -1z"/>
<path d="M4760 4557 c0 -5 -4 -5 -10 -2 -12 7 -11 19 -12 -191 -1 -94 1 -175
5 -180 3 -5 36 -9 74 -7 92 2 110 4 98 9 -6 2 -9 69 -7 181 2 113 -1 180 -8
187 -12 12 -140 15 -140 3z"/>
<path d="M5260 4557 c0 -5 -4 -5 -10 -2 -12 7 -11 15 -12 -190 0 -88 3 -167 6
-175 5 -12 23 -15 79 -14 39 1 75 2 80 3 4 1 7 84 7 185 0 140 -3 186 -13 195
-10 8 -17 7 -25 -1 -7 -7 -12 -8 -12 -2 0 5 -22 9 -50 9 -27 0 -50 -4 -50 -8z"/>
<path d="M5669 4558 c-13 -13 -15 -47 -14 -194 1 -99 3 -181 4 -184 2 -7 145
-5 157 2 11 7 13 363 1 374 -8 8 -101 9 -115 0 -6 -3 -12 -1 -14 5 -3 8 -9 7
-19 -3z"/>
<path d="M5986 4548 c-10 -14 -12 -26 -6 -33 9 -11 7 -46 -5 -64 -3 -5 -2 -12
2 -14 5 -3 8 -63 7 -134 l0 -128 80 1 c97 0 92 -12 90 209 -2 204 -1 190 -18
176 -8 -7 -17 -8 -20 -3 -3 5 -23 6 -45 2 -21 -4 -46 -3 -54 2 -11 6 -20 2
-31 -14z"/>
<path d="M2495 3799 c-3 -8 -4 -97 -3 -199 l3 -183 83 -1 c46 -1 86 2 89 7 2
4 -2 7 -9 7 -8 0 -9 3 -3 8 12 8 15 52 4 52 -5 0 -6 6 -3 14 10 26 9 166 -1
170 -7 3 -7 5 0 5 6 1 9 20 8 43 -1 24 -2 50 -2 59 -1 20 -47 29 -102 19 -22
-4 -42 -3 -48 3 -7 7 -12 6 -16 -4z"/>
<path d="M2822 3800 c0 -3 0 -7 -1 -10 -5 -13 -6 -100 -1 -100 5 0 3 -90 -3
-192 -2 -27 0 -48 4 -48 4 0 5 -8 3 -17 -5 -16 3 -18 73 -17 43 1 82 2 86 3 4
1 7 80 7 176 -1 96 1 178 4 184 3 5 -2 12 -12 16 -19 8 -161 13 -160 5z"/>
<path d="M3239 3804 c-1 -5 -2 -93 -3 -196 -2 -128 1 -188 8 -189 50 -4 156
-3 157 1 7 27 3 367 -4 375 -11 11 -112 13 -123 2 -4 -4 -13 -2 -21 4 -7 6
-14 8 -14 3z"/>
<path d="M3746 3795 c-8 -8 -11 -66 -10 -191 1 -98 2 -181 3 -184 1 -4 78 -5
146 -1 20 1 21 7 20 185 0 102 -3 187 -6 191 -12 11 -141 12 -153 0z"/>
<path d="M4417 3802 c-9 -2 -18 -7 -19 -10 0 -4 -2 -89 -3 -189 -1 -126 2
-183 9 -184 58 -4 134 -3 146 2 13 6 15 37 15 191 0 139 -3 183 -12 184 -7 1
-16 3 -20 4 -14 4 -98 5 -116 2z"/>
<path d="M5055 3799 c-3 -8 -4 -97 -2 -198 l2 -185 70 2 c39 1 77 2 85 3 12 2
15 20 15 96 0 51 -4 93 -8 93 -5 0 -5 5 -2 11 11 17 12 129 2 129 -5 0 -4 6 2
13 8 10 7 19 -4 33 -9 12 -14 14 -15 6 0 -8 -5 -10 -12 -5 -16 9 -45 10 -79 1
-15 -3 -32 -1 -38 5 -7 7 -12 6 -16 -4z"/>
<path d="M5557 3795 c-7 -18 -5 -375 2 -376 3 -1 33 -2 66 -3 105 -3 99 -16
99 196 1 116 -3 185 -9 186 -49 7 -156 5 -158 -3z"/>
<path d="M5969 3799 c-4 -11 -4 -310 0 -369 1 -15 27 -17 142 -11 l26 1 -1
189 c-1 104 -5 193 -9 197 -4 4 -7 2 -7 -5 0 -9 -5 -9 -22 0 -13 7 -23 12 -23
12 0 0 -10 -5 -22 -11 -14 -8 -24 -9 -28 -2 -4 7 -12 7 -25 0 -13 -7 -20 -6
-22 2 -3 8 -6 7 -9 -3z"/>
<path d="M6302 3795 c-8 -12 -10 -375 -2 -376 30 -6 153 -2 158 6 4 6 7 90 8
188 0 141 -2 180 -13 184 -25 10 -145 8 -151 -2z"/>
</g>
</svg>
